<svg xmlns="http://www.w3.org/2000/svg" xmlns:xlink="http://www.w3.org/1999/xlink" viewBox="0 0 164.82 289.19"><defs><style>.cls-1{isolation:isolate;}.cls-2{fill:url(#Áåçûìÿííûé_ãðàäèåíò_37);}.cls-3{fill:url(#Áåçûìÿííûé_ãðàäèåíò_6);}.cls-4{fill:url(#Áåçûìÿííûé_ãðàäèåíò_6-2);}.cls-5{fill:url(#Áåçûìÿííûé_ãðàäèåíò_6-3);}.cls-6{fill:url(#Áåçûìÿííûé_ãðàäèåíò_12);}.cls-10,.cls-7{mix-blend-mode:screen;}.cls-7{fill:url(#Áåçûìÿííûé_ãðàäèåíò_18);}.cls-8{fill:#eefdff;}.cls-9{fill:url(#Áåçûìÿííûé_ãðàäèåíò_12-2);}.cls-10{fill:url(#Áåçûìÿííûé_ãðàäèåíò_18-2);}.cls-11{fill:url(#Áåçûìÿííûé_ãðàäèåíò_12-3);}.cls-12{fill:url(#Áåçûìÿííûé_ãðàäèåíò_6-4);}.cls-13{fill:#fff;}.cls-14{fill:url(#Áåçûìÿííûé_ãðàäèåíò_28);}.cls-15{fill:url(#Áåçûìÿííûé_ãðàäèåíò_49);}.cls-16{fill:url(#Áåçûìÿííûé_ãðàäèåíò_6-5);}.cls-17{fill:url(#Áåçûìÿííûé_ãðàäèåíò_38);}.cls-18{fill:url(#Áåçûìÿííûé_ãðàäèåíò_37-2);}.cls-19{mix-blend-mode:soft-light;fill:url(#Áåçûìÿííûé_ãðàäèåíò_69);}</style><linearGradient id="Áåçûìÿííûé_ãðàäèåíò_37" x1="-133.25" y1="182.33" x2="-54.36" y2="101.39" gradientTransform="matrix(-0.11, 0.99, 0.99, 0.11, -63.86, 289.69)" gradientUnits="userSpaceOnUse"><stop offset="0.04" stop-color="#06bed8"/><stop offset="1" stop-color="#defa8e"/></linearGradient><linearGradient id="Áåçûìÿííûé_ãðàäèåíò_6" x1="78.14" y1="25.95" x2="92.83" y2="23.81" gradientTransform="matrix(1, 0, 0, -1, -11.43, 48.99)" gradientUnits="userSpaceOnUse"><stop offset="0.04" stop-color="#06cff1"/><stop offset="1" stop-color="#defa8e"/></linearGradient><linearGradient id="Áåçûìÿííûé_ãðàäèåíò_6-2" x1="74.39" y1="63.27" x2="100.47" y2="33.82" gradientTransform="matrix(1, 0, 0, -1, -11.43, 95.53)" xlink:href="#Áåçûìÿííûé_ãðàäèåíò_6"/><linearGradient id="Áåçûìÿííûé_ãðàäèåíò_6-3" x1="36.61" y1="165.26" x2="139.96" y2="61.91" gradientTransform="matrix(1, 0, 0, -1, -11.43, 211.26)" xlink:href="#Áåçûìÿííûé_ãðàäèåíò_6"/><linearGradient id="Áåçûìÿííûé_ãðàäèåíò_12" x1="87.85" y1="126.61" x2="88.77" y2="85.27" gradientTransform="matrix(-1, 0, 0, 1, 164.82, 0)" gradientUnits="userSpaceOnUse"><stop offset="0" stop-color="#030d14"/><stop offset="1" stop-color="#0b2f45"/></linearGradient><radialGradient id="Áåçûìÿííûé_ãðàäèåíò_18" cx="63.86" cy="105.63" r="17.18" gradientTransform="matrix(-1, 0, 0, 1, 164.82, 0)" gradientUnits="userSpaceOnUse"><stop offset="0.13" stop-color="#3280fc"/><stop offset="1"/></radialGradient><linearGradient id="Áåçûìÿííûé_ãðàäèåíò_12-2" x1="53.4" y1="105.63" x2="74.33" y2="105.63" xlink:href="#Áåçûìÿííûé_ãðàäèåíò_12"/><radialGradient id="Áåçûìÿííûé_ãðàäèåíò_18-2" cx="110.75" cy="105.63" r="17.18" xlink:href="#Áåçûìÿííûé_ãðàäèåíò_18"/><linearGradient id="Áåçûìÿííûé_ãðàäèåíò_12-3" x1="100.29" y1="105.63" x2="121.22" y2="105.63" xlink:href="#Áåçûìÿííûé_ãðàäèåíò_12"/><linearGradient id="Áåçûìÿííûé_ãðàäèåíò_6-4" x1="74.91" y1="8.2" x2="94.36" y2="5.37" gradientTransform="matrix(-1, 0, 0, 1, 164.82, 0)" xlink:href="#Áåçûìÿííûé_ãðàäèåíò_6"/><linearGradient id="Áåçûìÿííûé_ãðàäèåíò_28" x1="87.49" y1="142.66" x2="117.42" y2="112.74" gradientTransform="matrix(-1, 0, 0, 1, 164.82, 0)" gradientUnits="userSpaceOnUse"><stop offset="0.07" stop-color="#0da9ab"/><stop offset="1" stop-color="#defa8e"/></linearGradient><linearGradient id="Áåçûìÿííûé_ãðàäèåíò_49" x1="59.23" y1="233.47" x2="138.51" y2="140.89" gradientTransform="matrix(-1, 0, 0, 1, 164.82, 0)" gradientUnits="userSpaceOnUse"><stop offset="0.04" stop-color="#06cff1"/><stop offset="0.04" stop-color="#06cff1"/><stop offset="0.16" stop-color="#37d9db"/><stop offset="0.27" stop-color="#5de0ca"/><stop offset="0.38" stop-color="#78e6bd"/><stop offset="0.47" stop-color="#88e9b6"/><stop offset="0.54" stop-color="#8eeab3"/><stop offset="0.8" stop-color="#b9f39f"/><stop offset="1" stop-color="#defa8e"/></linearGradient><linearGradient id="Áåçûìÿííûé_ãðàäèåíò_6-5" x1="55.03" y1="187.31" x2="102.71" y2="131.64" gradientTransform="matrix(-1, 0, 0, 1, 164.82, 0)" xlink:href="#Áåçûìÿííûé_ãðàäèåíò_6"/><linearGradient id="Áåçûìÿííûé_ãðàäèåíò_38" x1="98.77" y1="227.87" x2="163.99" y2="193.88" gradientTransform="translate(-124.59 9.24) rotate(-8.66)" gradientUnits="userSpaceOnUse"><stop offset="0.04" stop-color="#06cff1"/><stop offset="0.07" stop-color="#0fd1ed"/><stop offset="0.42" stop-color="#67e2c5"/><stop offset="0.69" stop-color="#a7efa7"/><stop offset="0.9" stop-color="#cff795"/><stop offset="1" stop-color="#defa8e"/></linearGradient><linearGradient id="Áåçûìÿííûé_ãðàäèåíò_37-2" x1="105.16" y1="215.43" x2="147.23" y2="193.51" gradientTransform="matrix(-1, 0, 0, 1, 164.82, 0)" xlink:href="#Áåçûìÿííûé_ãðàäèåíò_37"/><radialGradient id="Áåçûìÿííûé_ãðàäèåíò_69" cx="89.16" cy="93.33" r="48.49" gradientTransform="matrix(-1.01, 0, 0, 0.41, 164.48, 230.44)" gradientUnits="userSpaceOnUse"><stop offset="0" stop-color="#bcd7d6"/><stop offset="1" stop-color="#fff"/></radialGradient></defs><g class="cls-1"><g id="Capa_2" data-name="Capa 2"><g id="Ñëîé_5" data-name="Ñëîé 5"><path class="cls-2" d="M145.31,163.13c-23,6.31-28.45,4.54-32.55,10.71a14,14,0,0,0-2.4,9,13.38,13.38,0,0,0,3.74,7.81c7.89,7.63,29.59-1.7,42-11.92,2.71-2.22,10-8.2,8.52-12.44-.6-1.74-2.47-2.6-3.8-3.2C154.91,160.43,148.78,162.18,145.31,163.13Z"/><rect class="cls-3" x="74.25" y="8.42" width="4.9" height="32.15" transform="translate(153.39 48.99) rotate(-180)"/><rect class="cls-4" x="55.26" y="37.2" width="42.87" height="21.13" rx="4.52" transform="translate(153.39 95.53) rotate(-180)"/><path class="cls-5" d="M35.36,47.3H118a35.36,35.36,0,0,1,35.36,35.36V101A62.92,62.92,0,0,1,90.47,164H62.92A62.92,62.92,0,0,1,0,101V82.67A35.36,35.36,0,0,1,35.36,47.3Z" transform="translate(153.39 211.26) rotate(-180)"/><path class="cls-6" d="M24.13,125.24h0a14.65,14.65,0,0,0,6.54,1.52h92.05a14.72,14.72,0,0,0,6.55-1.52h0a12.08,12.08,0,0,0,7-12.4l-.05-.37c-2.36-17.1-17.84-30.25-36.83-31.23-8-.42-16.46-.64-25.26-.59q-10.32.07-20,.58c-19.06,1-34.66,14.07-37,31.24l-.05.37A12.09,12.09,0,0,0,24.13,125.24Z"/><circle class="cls-7" cx="100.96" cy="105.63" r="17.36"/><circle class="cls-8" cx="100.96" cy="105.63" r="12.46"/><circle class="cls-9" cx="100.96" cy="105.63" r="10.46"/><path class="cls-8" d="M94.25,102.92A3.88,3.88,0,1,0,98.13,99,3.88,3.88,0,0,0,94.25,102.92Z"/><circle class="cls-8" cx="102.5" cy="113.65" r="1.55"/><path class="cls-8" d="M106.34,111.33a.78.78,0,1,0,.77-.77A.78.78,0,0,0,106.34,111.33Z"/><circle class="cls-10" cx="54.07" cy="105.63" r="17.36"/><circle class="cls-8" cx="54.07" cy="105.63" r="12.46"/><circle class="cls-11" cx="54.07" cy="105.63" r="10.46"/><path class="cls-8" d="M47.36,102.92A3.88,3.88,0,1,0,51.24,99,3.88,3.88,0,0,0,47.36,102.92Z"/><circle class="cls-8" cx="55.61" cy="113.65" r="1.55"/><path class="cls-8" d="M59.45,111.33a.77.77,0,1,0,.77-.77A.77.77,0,0,0,59.45,111.33Z"/><path class="cls-12" d="M70.42,6.28A6.28,6.28,0,1,0,76.7,0,6.28,6.28,0,0,0,70.42,6.28Z"/><path class="cls-13" d="M72.33,3.83a1.92,1.92,0,1,0,1.92-1.92A1.92,1.92,0,0,0,72.33,3.83Z"/><path class="cls-13" d="M22.65,67.43c-.08,2.93,2.31,6.43,5.05,6.73,2.57.28,4.62-2.34,6.74-5s6.64-9.51,4.82-11.45C36.87,55.1,22.85,60.52,22.65,67.43Z"/><circle class="cls-13" cx="46.11" cy="54.08" r="2.18"/><path class="cls-13" d="M23,108.08c.7.49,5.58-9.45,18.68-18.07,4.6-3,9.15-5.19,8.88-5.81s-5.39.54-9.49,2.45C28,92.7,22.13,107.49,23,108.08Z"/><path class="cls-13" d="M56.5,43.45c.16,0,.26-.89,1-2.31a12.64,12.64,0,0,1,.77-1.22c1.31-1.81,5.77-1.77,6.12-1.77,6.94.06,11.41-.38,11.41-.34s-3.26,0-5.65-.08c-6.73-.13-10.74-.5-12.46,1.31a5.74,5.74,0,0,0-1.07,1.72A3.67,3.67,0,0,0,56.5,43.45Z"/><path class="cls-8" d="M58,134.21a3.54,3.54,0,0,0,3.21,3.1l23,2.22a3.54,3.54,0,0,0,3.75-2.43,16,16,0,0,0,.5-2.2.78.78,0,0,0-.69-.88l-29-2.8a.78.78,0,0,0-.57.18.77.77,0,0,0-.26.54A15.57,15.57,0,0,0,58,134.21Z"/><path class="cls-14" d="M58,134.21a15.36,15.36,0,0,0,29.87,3.17,3.55,3.55,0,0,1-3.66,2.14l-23-2.21A3.54,3.54,0,0,1,58,134.21Z"/><path class="cls-15" d="M21.72,185.85c0,.21,0,.41,0,.61a14.18,14.18,0,0,0,.74,4C28.8,209.82,32.59,220,37.91,228.27c.92,1.42,1.88,2.79,2.92,4.13,1.36,1.79,2.85,3.54,4.5,5.34,3.68,4,9.23,5.8,11,6.43,6.54,2.31,12.33,1.89,16.18,1.93h.67c3.86,0,9.64.38,16.19-1.93,1.79-.63,7.35-2.44,11-6.43,10.1-11,14-20.14,22.86-47.25a14.33,14.33,0,0,0,.73-3.79,13.69,13.69,0,0,0,0-1.57,16.37,16.37,0,0,0-3.84-9.32,21.22,21.22,0,0,0-16.55-7.73L72.87,168l-30.2-.12a21.79,21.79,0,0,0-17,7.75,16.81,16.81,0,0,0-3.75,7.8c-.07.38-.12.78-.16,1.17S21.72,185.41,21.72,185.85Z"/><path class="cls-16" d="M72.88,168l30.76.13a21.31,21.31,0,0,1,16.55,7.73,16.54,16.54,0,0,1,3.84,9.33,16.37,16.37,0,0,0-4-9.56,21.77,21.77,0,0,0-17-7.75Z"/><path class="cls-17" d="M42.3,213.27c.45-23.86,3.68-28.58-1.08-34.26a14.08,14.08,0,0,0-7.94-4.83,13.38,13.38,0,0,0-8.55,1.39c-9.55,5.41-6.71,28.86-.42,43.66,1.37,3.23,5.05,11.89,9.53,11.68,1.84-.08,3.19-1.63,4.14-2.74C42.19,223.25,42.23,216.87,42.3,213.27Z"/><path class="cls-18" d="M37.91,228.27c.92,1.42,1.88,2.79,2.92,4.13.33-.34.63-.68.89-1,4.21-4.92,4.26-11.3,4.32-14.9.45-23.86,3.68-28.58-1.08-34.25a15.08,15.08,0,0,0-3.7-3.2c4.7,5.66,1.49,10.42,1,34.21-.06,3.6-.12,10-4.31,14.91A.24.24,0,0,0,37.91,228.27Z"/><path class="cls-13" d="M24.45,193.4A39.22,39.22,0,0,1,26,185.18c1.26-4.93,2.84-7.34,1.82-8.29-.67-.62-2-.2-2.28-.11-4.51,1.44-5.91,9.9-5.72,15.2.12,3.24.92,6.87,2.1,7a1.36,1.36,0,0,0,1-.3C24.25,197.54,24.34,195.35,24.45,193.4Z"/><path class="cls-13" d="M21.35,202.45a.94.94,0,1,0,.94-.94A.94.94,0,0,0,21.35,202.45Z"/><ellipse class="cls-19" cx="74.25" cy="269.11" rx="49.07" ry="20.09"/></g></g></g></svg>