<svg xmlns="http://www.w3.org/2000/svg" viewBox="0 0 69.91 130.74"><defs><style>.cls-1{fill:#444;}</style></defs><g id="Capa_2" data-name="Capa 2"><g id="Ñëîé_1" data-name="Ñëîé 1"><path class="cls-1" d="M4.05,35.28h0c.52.69,1,1.43,1.61,2.1a6.84,6.84,0,0,0,.92.86c-.39-.06-.77-.12-1.17-.2a21.39,21.39,0,0,1-3.62-.95,7.88,7.88,0,0,1-1.12-.47l-.42-.2-.13.16.41.23a10.16,10.16,0,0,0,1.11.56,22.62,22.62,0,0,0,3.63,1.21c1.35.34,2.73.6,3.76.77l.2,0A31.62,31.62,0,0,0,6.05,41c-.61.32-1.22.63-1.85.89a3.64,3.64,0,0,1-1.89.42l-.14.28a2.37,2.37,0,0,0,1.18,0,9.05,9.05,0,0,0,1.05-.3c.68-.23,1.32-.5,2-.78a38.7,38.7,0,0,1,3.8-1.57l0,0a7.07,7.07,0,0,1,1.9-.3,20.06,20.06,0,0,1,2.05,0,32.86,32.86,0,0,1,3.42.4,3.08,3.08,0,0,0,1.42.15,5.05,5.05,0,0,0,1.5-.55,2.09,2.09,0,0,1,.38-.14.36.36,0,0,1,.18,0h0s0,0,0,0,0,0,.05.07.2.25.31.39c.22.3.44.63.73,1a3.31,3.31,0,0,0,1.26,1l.7.2a3.82,3.82,0,0,0,.66.12c.47.06.81.06,1.16.08a25.2,25.2,0,0,1,3.2.61l.32.22a4.55,4.55,0,0,1,.61.53,2.87,2.87,0,0,1,.39.59,6.9,6.9,0,0,1,.45,1.53c.13.56.23,1.12.37,1.69.07.28.15.57.25.86a1.9,1.9,0,0,0,.11.27l.07.16a3.05,3.05,0,0,1,.13.32c.33.87.52,1.77.76,2.6a11.64,11.64,0,0,0,.83,2.2,6.31,6.31,0,0,0,.92,1.32c.14,1.7.36,3.47.68,5.29.16,1,.27,1.94.41,2.93.07.49.14,1,.2,1.49s.08,1,.12,1.51c0,.15,0,.31,0,.47a.87.87,0,0,0,0,.11h0c.06.82.12,1.65.17,2.48l0,3.08v.77c0,.26,0,.51-.05.76l-.1,1.52c-.06.86-.11,1.71-.17,2.56-.08-.1-.16-.21-.25-.31s-.31-.39-.47-.59-.24-.36-.37-.55l-.19-.28-.17-.32c-.1-.21-.23-.42-.33-.65a20.56,20.56,0,0,1-1-3.08c-.14-.56-.29-1.14-.43-1.74s-.28-1.21-.43-1.83a29.25,29.25,0,0,1-.56-3.62,22.43,22.43,0,0,0-.69-3.92,10.17,10.17,0,0,0-.77-2c-.18-.3-.37-.61-.56-.9s-.41-.55-.63-.81A20.24,20.24,0,0,0,26,54.92c-.93-.76-1.82-1.43-2.62-2.05l-.18-.14c0-.32,0-.78-.06-1.34a19.71,19.71,0,0,0-.45-4.22l-.18-.58c0-.09-.06-.17-.11-.29a1.68,1.68,0,0,0-.16-.3,7.28,7.28,0,0,0-.76-.93c-.52-.56-1-1-1.48-1.45s-.83-.74-1.11-1l-.33-.26-.12-.08s0,0-.13,0a.36.36,0,0,0-.13.05l.13.11a0,0,0,0,1,0,0s-.1.14-.07.1l.06,0,.29.27c.24.24.59.59,1,1s.85,1,1.29,1.52a7,7,0,0,1,.6.89,1,1,0,0,1,.08.2c0,.06,0,.17.06.25l.12.53a19.52,19.52,0,0,1,0,4.05s0,.1,0,.15a16.52,16.52,0,0,1-1.83-1.81,9.47,9.47,0,0,1-.74-1L19,48.37l-1.73.79.26.43a5.12,5.12,0,0,0,.28.44c-.87-.16-2-.38-3.1-.54-.13-.06-.27-.12-.43-.21a9.67,9.67,0,0,1-2-1.5c-.65-.63-1.26-1.29-1.73-1.78s-.8-.81-.8-.81l-.14.12s.32.32.76.82,1,1.19,1.66,1.85a10.78,10.78,0,0,0,1.56,1.37h-.11a21.74,21.74,0,0,0-2.38-.13,11.58,11.58,0,0,1-2-.06,2.74,2.74,0,0,1-1.25-.47,2.27,2.27,0,0,1-.35-.33l-.19.11a3.25,3.25,0,0,0,.37.39,3,3,0,0,0,1.35.6,12.87,12.87,0,0,0,2.07.18,20.36,20.36,0,0,1,2.28.25c1.55.24,3.08.65,4.24.92l.87.2a27.89,27.89,0,0,0,3.44,3.31,33.31,33.31,0,0,1,4.87,4.55l.48.69.42.71s0,.08,0,.13a11,11,0,0,0-1-1.29,5.37,5.37,0,0,0-2.94-1.73c-.62-.11-1.14-.17-1.66-.25a12.68,12.68,0,0,1-1.54-.25l-1.42-.33c-.46-.11-.87-.25-1.26-.36-.79-.22-1.43-.44-1.89-.58l-.71-.23-.13.29.7.27c.44.17,1.07.43,1.84.7.39.14.8.3,1.25.45l1.43.42a14.44,14.44,0,0,0,1.57.36l1.56.34a4.12,4.12,0,0,1,2.24,1.53c.16.21.3.42.44.64A11.18,11.18,0,0,0,25,59.93a17.53,17.53,0,0,0-2.37-.53,14.18,14.18,0,0,0-2.8-.18,24.22,24.22,0,0,0-2.73.47,12.64,12.64,0,0,1-2.36.28,4.35,4.35,0,0,1-1.62-.29,2.92,2.92,0,0,1-.4-.2l-.14-.08-.11.14.14.08a2.74,2.74,0,0,0,.43.22,4.36,4.36,0,0,0,1.7.34,12,12,0,0,0,2.42-.24,23.05,23.05,0,0,1,2.7-.42,14.06,14.06,0,0,1,2.7.23,17.65,17.65,0,0,1,2.3.56,10.65,10.65,0,0,1,1.52.6l.28.14c.16.29.31.57.46.83a12.12,12.12,0,0,0,1.09,1.62c.14.17.26.29.35.39.05.5.09,1,.13,1.51a28.77,28.77,0,0,0,.45,3.91c.05.23.09.45.14.67-.15-.23-.29-.48-.45-.73A6,6,0,0,0,26.6,67a11.58,11.58,0,0,0-3.11-.89,11.07,11.07,0,0,1-1.35-.34l-1.2-.43a15.79,15.79,0,0,1-1.75-.67l-.61-.34-.22.24L19,65a14.51,14.51,0,0,0,1.75.81l1.17.51a10.77,10.77,0,0,0,1.25.41c-.81.11-1.7.31-2.57.51a18.3,18.3,0,0,1-3.61.63,5,5,0,0,1-.67,0,3.39,3.39,0,0,1-.52,0l-.45-.08-.05.16.46.09a3.57,3.57,0,0,0,.54.07,5.19,5.19,0,0,0,.7,0,18.69,18.69,0,0,0,3.68-.54,15,15,0,0,1,3.6-.47h.13a6.22,6.22,0,0,1,1.69.67,5,5,0,0,1,1.7,2c.41.79.75,1.58,1.16,2.25a5.38,5.38,0,0,0,1,1.25,21.36,21.36,0,0,0,1,3.25c.11.28.25.56.38.83l.2.41.24.39c.16.26.32.53.48.76l.46.62,1.61,2.18,1.15,1.64a.6.6,0,0,1,.09.15c0,.46,0,.93,0,1.39,0,2,0,3.94,0,5.78-.07.28-.13.54-.18.79s-.11.65-.14.92a9.22,9.22,0,0,0-.75-.83l-.86-.84a10,10,0,0,1-.8-.89c-.27-.31-.52-.67-.79-1l-.78-1.13c-.52-.77-1.05-1.61-1.65-2.45s-1.26-1.63-1.88-2.43a22.78,22.78,0,0,1-3.05-4.85c-.11-.42-.24-.81-.33-1.25s-.19-.86-.31-1.29a4.3,4.3,0,0,0-.19-.65c0-.38,0-.79,0-1.21,0-.2,0-.4,0-.59s0-.4,0-.59c0-.38.05-.73.07-1,0-.61,0-1,0-1H23.7s0,.4,0,1c0,.3-.08.65-.12,1,0,.19-.05.39-.07.59s0,.41,0,.61,0,.23,0,.34c-.07-.11-.15-.21-.22-.31A2.59,2.59,0,0,0,22.8,73l-.46-.44-.5-.34a8.64,8.64,0,0,0-1-.54c-.63-.27-1.19-.47-1.64-.62l-1-.36-.36-.12-.33.66.37.15,1,.4A7.69,7.69,0,0,1,22,73.63a1.55,1.55,0,0,1,.3.41l.14.21a.55.55,0,0,1,.12.24,7.57,7.57,0,0,1,.31,1.1c.18.78.27,1.68.52,2.65a23,23,0,0,0,2.7,4.92l-.05,0a30.65,30.65,0,0,0-5.45-1.37c-2-.35-4-.62-5.51-.91s-2.45-.53-2.45-.53l-.11.32s1,.29,2.46.62,3.49.69,5.46,1.1a29,29,0,0,1,5.24,1.51c.34.13.64.27.91.4l.45.23c.37.51.72,1,1,1.49.52.82,1,1.66,1.5,2.48l.75,1.21c.27.39.51.78.8,1.14A11.42,11.42,0,0,0,32,91.89l.83.89a24.68,24.68,0,0,1,2,2.88c.27.39.48.69.65.9l.12.16c0,2.16.08,4,.13,5.53l-.12.28-.27-.06a10,10,0,0,0-3.41.19c-1.25.23-2.7.39-4.3.55-.81.07-1.63.14-2.49.25l-1.29.14-1.29.24a21.67,21.67,0,0,1-2.47.39c-.82.06-1.64,0-2.44,0a30.48,30.48,0,0,0-4.45.1,8.78,8.78,0,0,0-3.06.91,5.53,5.53,0,0,0-.78.46l-.26.18.23.33.27-.15a5.36,5.36,0,0,1,.74-.38,8.28,8.28,0,0,1,2.93-.69,13.32,13.32,0,0,1,1.56,0c-.63.36-1.3.88-2,1.28a14.22,14.22,0,0,1-2.57,1.09,6.09,6.09,0,0,0-.91.24l-.32.16.07.12.3-.15c.21-.06.51-.13.9-.2a13.8,13.8,0,0,0,2.65-1c.95-.47,1.75-1.11,2.45-1.39l.26-.1,2,.14c.81.06,1.65.12,2.53.11a24,24,0,0,0,2.61-.26l1.25-.16,1.25-.07c.83,0,1.67-.07,2.47-.1,1.61-.07,3.16-.15,4.46-.31a11.09,11.09,0,0,1,2.34-.1c0,.06,0,.15-.05.27a2.3,2.3,0,0,1-.82.31,28.73,28.73,0,0,1-5.54-.05,14.67,14.67,0,0,0-3.4.2l-.88.23a6.21,6.21,0,0,0-.86.35l-.42.19-.37.25-.73.51c-.45.33-.89.71-1.33,1a8,8,0,0,1-1.34.85,7.43,7.43,0,0,1-.69.35l-.75.23c-.51.14-1,.31-1.5.44-2.07.5-3.94,1-5.59,1.36L8,111.36l-1.7.54a5.9,5.9,0,0,0-1.09.44l-.37.21.23.34.33-.17a5.35,5.35,0,0,1,1-.36l1.69-.46,2.24-.47c1.21-.21,2.58-.49,4-.79h0a6.12,6.12,0,0,0-.61.71A14.28,14.28,0,0,1,12.75,113l-.6.78-.67.68a8.91,8.91,0,0,1-1.29,1.11,4.24,4.24,0,0,0-.88.86,2.33,2.33,0,0,0-.24.41l.13,0a1.93,1.93,0,0,1,.23-.38,4.13,4.13,0,0,1,.87-.8,9.27,9.27,0,0,0,1.33-1.09l.7-.67.63-.78a15.3,15.3,0,0,0,1.13-1.61,4.57,4.57,0,0,1,.57-.65c.2-.14.37-.3.55-.41l.84-.17c.51-.11,1.05-.26,1.59-.4l.82-.21c.27-.09.53-.23.8-.35a9.49,9.49,0,0,0,1.52-.87c.43-.27.81-.56,1.21-.84-.06.5-.09,1-.2,1.6a6.81,6.81,0,0,1-.72,2.18,5.58,5.58,0,0,1-.64.82l.09.1.21-.22a2.86,2.86,0,0,0,.49-.61,7.2,7.2,0,0,0,.84-2.22c.15-.67.21-1.36.32-1.91a6.15,6.15,0,0,1,2.58-1,14.5,14.5,0,0,1,1.74-.1,11.2,11.2,0,0,0-1.12,1c-.49.55-.95,1.14-1.27,1.58l-.55.74.11.08.58-.71a19.77,19.77,0,0,1,1.33-1.5,6.34,6.34,0,0,1,1.56-1.16l.69,0a38.76,38.76,0,0,0,5.3.35c-.28.33-.57.67-.9,1A16,16,0,0,1,31,109.16c-.27.24-.54.5-.82.74s-.55.45-.86.62l-.66-.14a8.41,8.41,0,0,0-1,0,6.36,6.36,0,0,1-1.78-.16,2.78,2.78,0,0,1-.73-.33l-.08.11a3.32,3.32,0,0,0,.76.39,6.87,6.87,0,0,0,1.82.26,8.47,8.47,0,0,1,.94.08l.24.06a30.65,30.65,0,0,1-4.21,1.37,8.83,8.83,0,0,0-2.48,1.18,18.61,18.61,0,0,0-2,1.66l-.06.06a.6.6,0,0,0-.13.09,3.68,3.68,0,0,1-1.6.65,14.67,14.67,0,0,1-1.8-.23,1.65,1.65,0,0,0-.62,0l-.23.09.07.12.2-.07a1.49,1.49,0,0,1,.57,0,15.88,15.88,0,0,0,1.82.32,3.91,3.91,0,0,0,.84-.17,13.09,13.09,0,0,1-2.4,1.92,8.26,8.26,0,0,0-2.69,1.8,1.77,1.77,0,0,0-.38.93,2.71,2.71,0,0,0,0,.37l.41-.07a1.12,1.12,0,0,1,.32-.93,8.24,8.24,0,0,1,2.62-1.52,19.27,19.27,0,0,0,3.64-2.71,17.49,17.49,0,0,1,2-1.46l.19-.1c0,.06,0,.1,0,.16a3.69,3.69,0,0,1,0,.89,3.15,3.15,0,0,1-.12,1,6.36,6.36,0,0,1-.7,1.78l-.46.76.11.07.5-.74a6.7,6.7,0,0,0,.82-1.8,4,4,0,0,0,.17-1.06,4.21,4.21,0,0,0,0-.93c0-.11,0-.21,0-.31a7.27,7.27,0,0,1,1.69-.63,22.79,22.79,0,0,0,5.07-1.45,10.41,10.41,0,0,0,1.11-.7c.34-.26.63-.51.94-.76a16.92,16.92,0,0,0,1.61-1.48l.39-.41v.35c0,1.34,0,2.9,0,4.58v.32a2.14,2.14,0,0,1-.24.48,3.87,3.87,0,0,1-1.94,1.28,22.2,22.2,0,0,1-2.38.54,1.91,1.91,0,0,0-.77.35.53.53,0,0,0-.17.3l.13,0a.44.44,0,0,1,.14-.21,1.64,1.64,0,0,1,.71-.29,23.43,23.43,0,0,0,2.42-.45,4.28,4.28,0,0,0,2.09-1.26,20.26,20.26,0,0,1-.37,4,2.77,2.77,0,0,1-.17.58,1.94,1.94,0,0,1-.21.52,3.65,3.65,0,0,1-.78.83,5.18,5.18,0,0,0-1,1,2.54,2.54,0,0,0-.37,1.5,1.33,1.33,0,0,0,.05.38.62.62,0,0,0,0,.1,3,3,0,0,0-.12.84,3.22,3.22,0,0,1-.57,2.23c-.64.55-1.57.86-2,1.46a2.06,2.06,0,0,0-.35,1.1h.14a1.76,1.76,0,0,1,.35-1c.39-.53,1.28-.79,2-1.37a2.23,2.23,0,0,0,.64-1.24c.07-.43.08-.84.11-1.16a4,4,0,0,1,.05-.4,2.1,2.1,0,0,0,.41.43c.38.27.71.43,1,.63a3.85,3.85,0,0,1,1.22,1.52,8.53,8.53,0,0,1,.55,3.05c0,.78,0,1.22,0,1.22h.41s0-.45,0-1.23a9.2,9.2,0,0,0-.42-3.29,4.52,4.52,0,0,0-1.36-1.89c-.33-.25-.69-.47-1-.68a.83.83,0,0,1-.33-.73,1.59,1.59,0,0,1,.27-.92,5.61,5.61,0,0,1,.86-.78,5.79,5.79,0,0,0,.82-.72,2.09,2.09,0,0,0,.22.2c.26.18.57.34.88.51a3.49,3.49,0,0,1,.83.72,5.89,5.89,0,0,1,1.08,1.8,3.6,3.6,0,0,1,.24.92h.14a4.75,4.75,0,0,0-.21-1,6.53,6.53,0,0,0-1-1.92,3.92,3.92,0,0,0-.87-.81c-.32-.2-.61-.36-.83-.53a1.39,1.39,0,0,1-.21-.21l0,0a2.59,2.59,0,0,0,.34-.69,3.83,3.83,0,0,0,.25-.69c.13-.46.23-.92.31-1.37l.26.28a17.44,17.44,0,0,1,2.2,1.84A14.92,14.92,0,0,1,39.16,122a3.85,3.85,0,0,1,.29.88c.06.22.09.35.09.35l.14,0-.09-.36a3.86,3.86,0,0,0-.27-.92,14.41,14.41,0,0,0-1.49-2.51,16,16,0,0,0-2.16-1.94,3,3,0,0,1-.43-.56c.17-1.17.25-2.33.32-3.42.1-1.66.2-3.22.29-4.55a16.34,16.34,0,0,1,.16-1.77c0-.26.05-.5.09-.72l.33-.34h.13s0,.08.07.12l.15.24c.12,1.13.23,2.42.41,3.79,0,.44-.12,1-.21,1.41a9.31,9.31,0,0,0-.44,1.92,1.74,1.74,0,0,0,.08.66l.09.24.12-.06s0-.08-.07-.22a1.42,1.42,0,0,1,0-.61,9.7,9.7,0,0,1,.52-1.86c0-.16.06-.3.09-.45.1.65.21,1.31.35,2,.67,2.83,2,5.27,2.62,7.22.19.48.28.94.4,1.34a6.47,6.47,0,0,1,.21,1c.1.59.15.93.15.93l.41,0s0-.35-.08-1a7.68,7.68,0,0,0-.15-1.1,14.13,14.13,0,0,0-.31-1.41c-.17-.73-.44-1.54-.72-2.39.55.41,1.33.85,2.06,1.35A4.6,4.6,0,0,1,44,120.94a2.62,2.62,0,0,1,.2,1.07h.13a2.62,2.62,0,0,0-.17-1.15A4.78,4.78,0,0,0,42.43,119c-.74-.54-1.52-1-2-1.44l-.41-.36c-.25-.77-.51-1.56-.72-2.37l.38,0c.76.08,1.74-.09,2.68,0s2-.06,2.32.71c.15.31.38.63.65.64a1.55,1.55,0,0,0,.35,0l0-.13s-.12,0-.3,0-.37-.25-.53-.58a1.5,1.5,0,0,0-.37-.5,1.39,1.39,0,0,0-.65-.27c-.46-.09-1-.08-1.43-.13-1-.07-2,.06-2.66,0a3.21,3.21,0,0,1-.52-.1,13.78,13.78,0,0,1-.3-1.42,50.59,50.59,0,0,1-.36-5.35,4.91,4.91,0,0,0,1.51.13l.53-.05c.52.74,1.08,1.61,1.76,2.53a.48.48,0,0,1-.15.42,2.64,2.64,0,0,1-.58.41,1.36,1.36,0,0,0-.78,1.56,1,1,0,0,1-.19.67,1.72,1.72,0,0,0-.3.71h.13a1,1,0,0,0,.06-.18,1.89,1.89,0,0,1,.26-.45,1.2,1.2,0,0,0,.26-.76c0-.29,0-.57.12-.79a1.12,1.12,0,0,1,.59-.49,3.14,3.14,0,0,0,.68-.43.89.89,0,0,0,.21-.28,28.92,28.92,0,0,0,3.07,3.09,34.51,34.51,0,0,1,3.61,4.65.65.65,0,0,1,0,.19,9.85,9.85,0,0,0-.66,2.25,2.32,2.32,0,0,0,.31,1.26c.19.37.4.67.55,1a2.69,2.69,0,0,1,.28.69c0,.18.07.28.07.28l.13,0-.06-.29a2.61,2.61,0,0,0-.27-.74,4,4,0,0,1-.74-2.11,7.69,7.69,0,0,1,.7-2.06c.36.53.71,1,1.06,1.48a19.23,19.23,0,0,0,1.77,2.11l.73.76.29-.29-.66-.79a19.66,19.66,0,0,1-1.59-2.17c-.71-1-1.45-2.39-2.32-3.78a13.8,13.8,0,0,0,3.09.36,10.39,10.39,0,0,1,3,1,3.19,3.19,0,0,1,.84.61,1,1,0,0,1,.19.32l.13,0a1.16,1.16,0,0,0-.21-.38,3.29,3.29,0,0,0-.86-.66A10.66,10.66,0,0,0,52,116.19a12.2,12.2,0,0,1-3.16-.47,2.55,2.55,0,0,1-.33-.17A25.22,25.22,0,0,0,46.63,113a11.12,11.12,0,0,0,2.63.13,8.19,8.19,0,0,1,2.8.2,2.66,2.66,0,0,1,.8.42l.27.22.09-.09-.27-.25a2.75,2.75,0,0,0-.84-.46,8.61,8.61,0,0,0-2.85-.32,9.69,9.69,0,0,1-2.78-.24,2.52,2.52,0,0,1-.33-.13,21.14,21.14,0,0,1-2.43-2.82c-.49-.73-.92-1.48-1.33-2.19a6.13,6.13,0,0,1,3.1.19c.27.1.55.21.82.33a9.55,9.55,0,0,1,1,1.93,13.33,13.33,0,0,0,1,2.1,3,3,0,0,0,.5.6l.22.19.09-.1-.21-.2a2.54,2.54,0,0,1-.45-.58,13.18,13.18,0,0,1-.91-2.12c-.21-.53-.41-1.1-.66-1.58,1.92.85,3.73,1.92,5.24,2.58.46.22.9.38,1.29.53a8.17,8.17,0,0,0,1,.34l.91.25.1-.4-.86-.31a6.28,6.28,0,0,1-1-.4,12.5,12.5,0,0,1-1.21-.61c-.39-.2-.8-.44-1.22-.69.52,0,1.11-.14,1.7-.17a7.58,7.58,0,0,1,2.06.2c.56.13.93.24.93.24l0-.13s-.36-.13-.92-.29a8.1,8.1,0,0,0-2.12-.29c-.78,0-1.55.14-2.1.09l-.2,0a41.82,41.82,0,0,0-4.67-2.61,8.28,8.28,0,0,0-4.2-.49h-.18l-.34-.51c.62,0,1.28,0,2,0l2.68-.1a11.92,11.92,0,0,1,2.84.17c.72.12,1.47.3,2.24.5a2.86,2.86,0,0,1,.68.75,10.36,10.36,0,0,0,.62,1.37,1,1,0,0,0,.37.37l.18.09,0-.12a1,1,0,0,1-.44-.43,12.8,12.8,0,0,1-.53-1.4,2.44,2.44,0,0,0-.32-.49c1.14.29,2.32.58,3.53.77a8.3,8.3,0,0,1,3.16,1.16,5.37,5.37,0,0,1,.15.76c.13,1,.25,2.36.4,3.71.07.66-.07,1.33-.06,2a2.55,2.55,0,0,0,.5,1.7,4.2,4.2,0,0,1,.75.94,1.22,1.22,0,0,1,.11.43h.14a2,2,0,0,0-.11-.48,4.45,4.45,0,0,0-.76-1A2.37,2.37,0,0,1,59,114.6c0-.62.16-1.3.11-2-.11-1.36-.2-2.73-.31-3.74a3.25,3.25,0,0,0-.07-.45,11.82,11.82,0,0,1,1.78,1.46c.75.7,1.47,1.43,2.2,2.05l.33.27a1.82,1.82,0,0,1,.18.44,3.84,3.84,0,0,1-.07,2.11,3.68,3.68,0,0,0,.31,2.23c.21.57.33,1,.33,1l.13,0s-.1-.4-.3-1a3.5,3.5,0,0,1-.21-2.11,4.45,4.45,0,0,0,.19-2.14l.2.18a13.42,13.42,0,0,0,1.13.73l1.05.57a1.57,1.57,0,0,1,.11.42c.09.39,0,1,.17,1.55s.51,1,.64,1.43A1.33,1.33,0,0,1,67,118c0,.12,0,.18,0,.18h.13V118a1.66,1.66,0,0,0-.09-.52c-.12-.43-.43-.92-.55-1.44s0-1.1-.07-1.54a.59.59,0,0,0,0-.13,16.74,16.74,0,0,1,2,1.18l.5.39c.12.14.21.25.3.34l.25.29.34-.23-.26-.33c-.09-.1-.2-.23-.32-.39s-.32-.27-.5-.44A33.3,33.3,0,0,0,65.22,113c-.34-.22-.69-.46-1-.73s-.65-.58-1-.92-.92-.9-1.39-1.39a6.11,6.11,0,0,1,1.41,0c.7.12,1.29.69,2.07.92,0,0,0,0,0,0a16.08,16.08,0,0,0,2.35.48,12.37,12.37,0,0,1,2.22.84l.06-.11a12,12,0,0,0-2.22-.93,19.12,19.12,0,0,1-2.31-.52h0c-.7-.22-1.26-.82-2.08-1a4.76,4.76,0,0,0-1.19,0l-.63.05-.38-.39c-.36-.38-.77-.74-1.17-1.13a11.82,11.82,0,0,0-1.37-1l-.75-.45L57,106.3a9.07,9.07,0,0,0-1.69-.49c-2.14-.43-4.17-1.22-6.3-1.7a12.69,12.69,0,0,0-1.6-.26,14,14,0,0,0-1.53-.07H44.66a10.79,10.79,0,0,1,3.18-.35c1.75.12,3.7.72,5.8.89,1.08,0,2.08,0,3-.06l.69,0,.32,0,.29.11.61.23.6.32,1.26.71c0,.12,0,.27,0,.46a11.74,11.74,0,0,1,0,1.49,1.4,1.4,0,0,0,0,.45,1.23,1.23,0,0,0,.23.37,4.06,4.06,0,0,0,.53.5.8.8,0,0,1,.32.51l.14,0a1,1,0,0,0-.35-.63,3.27,3.27,0,0,1-.47-.5,1.28,1.28,0,0,1-.17-.3,1.44,1.44,0,0,1,0-.36,10.35,10.35,0,0,0,.07-1.52v-.24c.24.13.49.27.74.39a18.72,18.72,0,0,0,2.3.88l1.38.46.37.7a1.91,1.91,0,0,0,.55.63,1.77,1.77,0,0,0,.35.16l0-.13a1.34,1.34,0,0,1-.29-.17,1.67,1.67,0,0,1-.41-.62c0-.14-.11-.28-.16-.41a8.8,8.8,0,0,1,1.49.69A5,5,0,0,1,68,109l.27.21.29-.3-.29-.24a5.8,5.8,0,0,0-.84-.63,16.1,16.1,0,0,0-3.35-1.52h0l.34-.09c.22-.07.44-.12.67-.18s.47-.14.68-.23a1.84,1.84,0,0,1,1.3-.17,5.32,5.32,0,0,0,1.4.21V106a4.63,4.63,0,0,1-1.35-.27,2.13,2.13,0,0,0-1.43.12c-.23.08-.43.13-.66.19s-.46.09-.69.15a5.63,5.63,0,0,1-.88.16c-.5-.21-1-.43-1.53-.71-.36-.22-.74-.41-1.12-.65l-.55-.37c.25-.11.55-.25,1-.4s1-.52,1.55-.75a1.4,1.4,0,0,1,.86-.06c.3.07.57.24.91.36l.48.19.49.12.94.25c.3.09.57.21.83.31L68,105a4.41,4.41,0,0,0,1.11.56l.46.11,0-.13-.44-.12a4.21,4.21,0,0,1-1-.56l-.69-.45c-.27-.12-.56-.25-.86-.35a13.57,13.57,0,0,1-1.87-.6c-.3-.1-.61-.31-.95-.4a1.79,1.79,0,0,0-1,.05c-.62.24-1.1.56-1.57.71s-.87.34-1.14.46l-.07,0-.22-.13-.63-.38-.72-.31-.39-.16-.41,0c-.25,0-.52-.07-.78-.09-1,0-2,0-3-.09-1.89-.23-3.78-.93-5.77-1.18a11.1,11.1,0,0,0-2.9.08c-.89.13-1.7.31-2.43.45a11.1,11.1,0,0,1-3.35.32h-.07c-.09-1.81-.21-4.29-.33-7.25,0-1.08-.08-2.23-.13-3.43l0-.2a14.11,14.11,0,0,1,.37-1.65c.17-.67.41-1.47.6-2.42,0-.12,0-.24.08-.36v0l0-.07,0-.18c.05-.24.11-.49.17-.74.09-.47.17-1,.27-1.47A17.52,17.52,0,0,1,41,82.15l.27-.66c.09-.21.23-.4.34-.61a7,7,0,0,1,.45-.65c.16-.21.31-.44.49-.65C43.22,78.77,44,78,44.89,77l14.52-3,0-.16L45.31,76.54a9.53,9.53,0,0,0,.83-1.17.68.68,0,0,0,.12-.12,4.78,4.78,0,0,0,.39-.39c.24-.26.47-.51.69-.77.44-.51.87-1,1.28-1.59a9.57,9.57,0,0,0,.89-1.39c.23-.08.53-.21.91-.31.83-.25,2-.54,3.15-.78s2.36-.48,3.25-.71c.44-.1.8-.21,1.06-.28l.4-.12-.1-.3-.41.07c-.25,0-.62.12-1.06.16-.89.12-2.09.22-3.3.33s-2.28.25-3.18.41c.1-.22.19-.44.29-.65a15.7,15.7,0,0,1,1.74-3.22l.28-.33.13-.17.12-.11a3.14,3.14,0,0,1,.69-.41,9.33,9.33,0,0,0,1-.5A1.92,1.92,0,0,0,55.42,63s-.06,0-.11,0a1.55,1.55,0,0,0,.16-1.17c0-.06,0-.12,0-.19h0s0-.05,0-.16a3.18,3.18,0,0,1,0-.44,4,4,0,0,1,.23-1.58,6.1,6.1,0,0,1,1.27-2l.06-.06,1.24-.19c.9-.14,2.1-.3,3.31-.41a25.15,25.15,0,0,1,3.32,0c.45,0,.82.08,1.09.1l.41,0,0-.17-.41,0c-.27,0-.64-.11-1.1-.13a24.44,24.44,0,0,0-3.37,0c-1.22.08-2.44.21-3.35.32l-.68.09a18,18,0,0,1,1.72-1.46c1.69-1.28,3.51-2.49,4.74-3.55a14,14,0,0,0,1.39-1.37c.16-.17.27-.32.35-.42l.11-.15-.28-.18-.12.14c-.09.09-.2.23-.37.38a13.37,13.37,0,0,1-1.44,1.24c-1.27,1-3.15,2-5,3.24a18.16,18.16,0,0,0-2.55,2A7.66,7.66,0,0,0,54.92,58c0-.7.11-1.4.2-2.1A21.45,21.45,0,0,1,56,52.33c.16-.1.37-.22.6-.34.38-.2.84-.42,1.3-.72a12,12,0,0,0,1.27-1.09L61.25,48l1-.91L62.18,47l-1.1.89L58.86,50a10.18,10.18,0,0,1-1.24,1,14.43,14.43,0,0,1-1.29.66l-.18.09a21.07,21.07,0,0,1,1.06-2.45L56.48,49a22.32,22.32,0,0,0-2.58,6.83c-.1.59-.23,1.18-.29,1.79,0,.3-.07.6-.1.9l0,.92a3.84,3.84,0,0,0,0,.49l0,.28,0,.24c.06.32.13.6.2.89s.12.55.15.8a1.7,1.7,0,0,1,0,.54l0,.08c-.06.12-.08.17-.29.28a8.36,8.36,0,0,1-.86.36,5.47,5.47,0,0,0-1.1.6l-.25.22-.2.2-.37.41a17.42,17.42,0,0,0-2.15,3.46c-.29.57-.58,1.15-.89,1.69.4-2.09.86-4.06,1.17-5.77.17-.87.32-1.66.46-2.37s.19-1.34.26-1.85c.14-1,.23-1.61.23-1.61L48,58.13s-.11.57-.29,1.56c-.09.49-.21,1.1-.33,1.79-.11.46-.23,1-.36,1.5-.07-.28-.13-.56-.2-.86a27.29,27.29,0,0,1-.38-2.79c0-.25,0-.5-.05-.76s0-.51,0-.77,0-.5,0-.76l0-.38c0-.12,0-.22.07-.33a6.11,6.11,0,0,1,1.7-2.64c.62-.68,1.33-1.35,2-2.13h0v0q.3-.36.57-.75A6,6,0,0,0,51.66,49a8,8,0,0,0,.23-1,6.57,6.57,0,0,0,0-1c0-1.27-.33-2.43-.25-3.42a4.32,4.32,0,0,1,.06-.47l.35,0c.33,0,.82,0,1.39-.11a23.08,23.08,0,0,0,4.1-.83,22.91,22.91,0,0,0,3.8-1.59c.51-.25.88-.51,1.17-.67l.43-.26-.1-.13-.44.24c-.29.15-.67.4-1.17.64a23.23,23.23,0,0,1-3.8,1.48,22.48,22.48,0,0,1-4,.72,13.13,13.13,0,0,1-1.36.08h-.24a1.31,1.31,0,0,1,.15-.36c.1-.11.19-.13.51-.25a8.09,8.09,0,0,0,.86-.34,8.47,8.47,0,0,0,2.8-1.86,3.82,3.82,0,0,0,.72-1.32c0-.18.09-.35.12-.52a26.58,26.58,0,0,1,1.5-2.3A15.79,15.79,0,0,1,60,34a5.61,5.61,0,0,1,.57-.52l.23-.18-.11-.14-.25.19a4.85,4.85,0,0,0-.61.5,15.42,15.42,0,0,0-1.62,1.73c-.42.52-.81,1-1.13,1.52,0-.66,0-1.23,0-1.69a9.88,9.88,0,0,1,.08-1.18c0-.28,0-.42,0-.42l-.8-.12-.08.44a11.5,11.5,0,0,0-.13,1.26c0,.53,0,1.18-.09,1.88a3.33,3.33,0,0,1-.8,2,7.65,7.65,0,0,1-2.49,1.5c-.24.1-.48.18-.76.27a2.33,2.33,0,0,0-1,.53,2,2,0,0,0-.33.53c-.07.18-.11.32-.16.47a5.12,5.12,0,0,0-.17.9c-.14,1.27.13,2.43.09,3.52a5.18,5.18,0,0,1-.07.8,6.77,6.77,0,0,1-.22.77,3.88,3.88,0,0,1-.35.78,26.2,26.2,0,0,0-1.43-4.59,18.24,18.24,0,0,0-1.17-2.34c-.06-.11-.16-.2-.06-.29l.11-.2.15-.24c.19-.31.39-.61.58-.88.76-1.08,1.33-1.77,1.33-1.77l-.27-.19s-.64.65-1.5,1.69c-.22.26-.45.55-.68.86l-.15.19a20.19,20.19,0,0,0-.58-2c-.26-.62-.47-1.26-.71-1.71l-.36-.76-.17.06s.12.31.31.77.38,1.1.6,1.73.36,1.27.42,1.75c0,.31.09.55.12.68s0,.06,0,.08l0,.1.2.39A17.91,17.91,0,0,1,47.47,45a25.3,25.3,0,0,1,1,4.53c.07.56.1,1,.12,1.37-.54.57-1.14,1.13-1.74,1.72a8.06,8.06,0,0,0-2.23,3.28,5,5,0,0,0-.11.5l-.06.45c0,.3-.07.6-.07.88s0,.56,0,.84,0,.55,0,.82a26.87,26.87,0,0,0,.28,3c.08.46.16.9.24,1.33s.19.82.31,1.2l.18.56a1.18,1.18,0,0,0,.07.2q0,.48.09.87c.06.52.1.93.13,1.21s0,.25,0,.32a.2.2,0,0,1,0,.07c-.12.47-.23.95-.35,1.45L45,71.27l-.1.42-.11.36-.21.74a7.87,7.87,0,0,1-1.69,2.59c-.8.81-1.75,1.66-2.62,2.63-.22.23-.41.5-.61.74a9.37,9.37,0,0,0-.59.78c-.17.28-.37.55-.51.83V78.83c0-1,.09-2,.13-3.07,0-.53,0-1.07.07-1.61,0-.27,0-.54,0-.8l0-.8c0-1.07-.07-2.13-.11-3.19s-.17-2-.26-2.92c.11-.29.3-.69.53-1.15.32-.63.73-1.35,1.27-2.26.24-.49.49-1,.73-1.59q.13-.42.3-.87a6.54,6.54,0,0,0,.26-.92,24.78,24.78,0,0,0,.3-8.58c-.26-3-.61-6.23.11-9.32A9.47,9.47,0,0,1,44,37.65c.58-.72,1.22-1.42,1.84-2.12l.88-.17L48,35.05l1.66-.45,2-.58c.68-.23,1.41-.44,2.14-.72l1.13-.41L56,32.4a10.43,10.43,0,0,0,1.14-.6,1.1,1.1,0,0,0,.14-.09h.18a4.71,4.71,0,0,0,1.31-.39,11,11,0,0,0,3-2.37c.94-1,1.8-2,2.5-2.73.35-.36.65-.65.87-.84l.36-.3L65.41,25l-.38.3c-.23.19-.55.47-.91.83-.72.72-1.62,1.73-2.58,2.67A11,11,0,0,1,58.6,31a5,5,0,0,1-.62.21c.07-.08.15-.16.21-.24a6.08,6.08,0,0,0,1-2.2,11.57,11.57,0,0,1,.69-2,15,15,0,0,1,1.53-2.22l.14,0a5.26,5.26,0,0,0,.86-.25A12.58,12.58,0,0,0,64.7,23c.78-.49,1.55-1,2.15-1.34a8.42,8.42,0,0,1,1-.52L67.8,21a8.83,8.83,0,0,0-1.07.49c-.63.32-1.42.8-2.22,1.27a12.49,12.49,0,0,1-2.26,1.1l-.4.11.33-.39c.76-.9,1.42-1.62,1.82-2.19s.64-.86.64-.86l-.29-.16-.68.82c-.41.53-1.11,1.22-1.91,2.09a19.34,19.34,0,0,0-2.55,3.17c-.75,1.31-.88,2.92-1.79,4a2.46,2.46,0,0,1-.83.64,8.91,8.91,0,0,1-1,.48l-1.1.41-1.1.36c-.73.24-1.46.42-2.13.62l-1.94.49-1.64.37-.43.08a13.41,13.41,0,0,0,1.3-2A7.19,7.19,0,0,0,49,30.8a8.51,8.51,0,0,0,.32-1.07c.08-.35.17-.7.24-1l.18-1c.06-.29.1-.58.14-.86l.2-.29a12,12,0,0,1,.85-1.07,41,41,0,0,1,3-3c1.15-1.08,2.31-2.18,3.08-3.08a10.3,10.3,0,0,0,.85-1.13l.28-.46L58,17.67l-.3.43a11.84,11.84,0,0,1-.91,1.06c-.81.84-2,1.86-3.24,2.88A41.69,41.69,0,0,0,50.22,25l-.14.14A47.05,47.05,0,0,1,50.89,20a14.41,14.41,0,0,1,.44-1.57l.17-.56-.77-.23-.2.57A15.11,15.11,0,0,0,50,19.8a52.09,52.09,0,0,0-1.09,5.86c-.11.59-.19,1.23-.33,1.86-.07.32-.14.64-.2,1l-.27,1a6.24,6.24,0,0,1-.32,1,2.54,2.54,0,0,1-.16.38c-.16-.39-.36-.91-.6-1.51s-.6-1.54-.91-2.44c-.17-.44-.33-.91-.5-1.38-.08-.23-.17-.47-.26-.7a1.73,1.73,0,0,1-.08-.35,2,2,0,0,1-.06-.35,7.76,7.76,0,0,1,.39-2.83c.27-.91.58-1.74.82-2.47a13.38,13.38,0,0,0,.66-2.47l-.23,0a11.7,11.7,0,0,1-.76,2.4c-.27.71-.63,1.53-.94,2.44a8.11,8.11,0,0,0-.55,3,3.43,3.43,0,0,0,.12.79l.22.73c.15.48.29.95.43,1.41.28.92.54,1.77.8,2.49.46,1.33.77,2.24.82,2.39a11.61,11.61,0,0,1-.92,1.27c-1,1.2-2.19,2.34-3.3,3.65A13.83,13.83,0,0,0,41.26,39a8.88,8.88,0,0,0-1,2.46,19.66,19.66,0,0,0-.61,5c0,1.64.09,3.23.18,4.75a23.45,23.45,0,0,1-.51,8,5.47,5.47,0,0,1-.26.81c-.1.26-.19.51-.29.76-.21.47-.44.9-.64,1.32-.11.16-.21.32-.31.48-.13-.83-.25-1.67-.4-2.44a59,59,0,0,1-1.12-10.51c0-2.13,0-4,.11-5.6.24-2.21.53-4.8.92-7.53,0-.34.11-.68.16-1s.15-.71.22-1.06c.15-.71.28-1.43.48-2.11a6.24,6.24,0,0,1,.32-1l.18-.48.26-.42c.38-.58.91-1.18,1.38-1.87l.34-.54c.11-.19.19-.4.29-.59a5.26,5.26,0,0,0,.33-1.25,8.16,8.16,0,0,0,0-1.78h0l.11-.95a10.52,10.52,0,0,1,.21-1.13c.09-.44.19-.93.32-1.48s.27-1.13.39-1.8c.06-.32.12-.66.18-1L42.62,17a1.7,1.7,0,0,1,0-.22l0,0a4.65,4.65,0,0,0,.59-.41,9.09,9.09,0,0,0,1.6-1.72c.56-.74,1.1-1.63,1.73-2.51A10.23,10.23,0,0,1,47.41,11h.42a5.16,5.16,0,0,1,.79,0c.31,0,.66,0,1,.06,1.54.1,3.58.45,5.66.74a6.63,6.63,0,0,0,1.62.1,6.14,6.14,0,0,0,1.52-.36,10.64,10.64,0,0,0,2.32-1.28c.61-.44,1.1-.82,1.45-1.09l.55-.41-.14-.15L62.07,9c-.36.24-.87.61-1.5,1a10.1,10.1,0,0,1-2.28,1.14,5.79,5.79,0,0,1-1.4.27,6.36,6.36,0,0,1-1.47-.16c-2-.37-4.07-.82-5.66-1-.39-.06-.76-.08-1.09-.1l-.26,0a3.55,3.55,0,0,1,.54-.3A25.81,25.81,0,0,1,52.49,9c.29-.06.58-.14.87-.23a5.29,5.29,0,0,0,.82-.29,6.2,6.2,0,0,0,.73-.36c.22-.12.45-.23.65-.36.8-.49,1.44-.92,1.89-1.21l.71-.47L58,5.8l-.75.42c-.47.28-1.14.67-1.95,1.1-.2.12-.42.21-.65.32a5.32,5.32,0,0,1-.69.3,6.23,6.23,0,0,1-.77.22l-.28.06A4.86,4.86,0,0,0,53.5,7c.19-.56.35-1.13.49-1.55a5.71,5.71,0,0,1,.27-.68l-.17-.08a5.63,5.63,0,0,0-.33.69c-.17.42-.36,1-.59,1.53a3.85,3.85,0,0,1-.84,1.33,1.53,1.53,0,0,1-.22.16,22.14,22.14,0,0,0-3.55.72,5.71,5.71,0,0,0-1.73,1.06,10.83,10.83,0,0,0-1.23,1.34c-.71.89-1.3,1.73-1.87,2.39A8.7,8.7,0,0,1,42.61,15c0-.09,0-.17,0-.26,0-.75-.11-1.49-.16-2.23l-.06-1.1,0-.55,0-.25,0-.28c0-.76,0-1.49,0-2.15A2.77,2.77,0,0,1,43,6.52a4.93,4.93,0,0,1,1.46-1.06c1.06-.54,2-.9,2.69-1.18s1.05-.45,1.05-.45L48,3.41s-.37.16-1,.41-1.65.58-2.8,1.11a7.81,7.81,0,0,0-1,.54v0a11.71,11.71,0,0,1,.24-1.82,12.44,12.44,0,0,0,.25-1.9,6.25,6.25,0,0,0,0-.64c0-.15,0-.23,0-.23h-.22s0,.09,0,.24a4.42,4.42,0,0,1-.07.6,13.8,13.8,0,0,1-.51,1.8,13.85,13.85,0,0,0-.52,1.87c-.06.27,0,.5-.08.66s0,.26,0,.26h.09a3.54,3.54,0,0,0-.76,1.88c-.08.74-.05,1.45-.13,2.16l0,.26c0,.15,0,.21,0,.31v.57c0,.37,0,.75,0,1.13,0,.74.07,1.5.06,2.22a14.48,14.48,0,0,1-.06,2.1c0,.34-.07.67-.1,1l-.21.94c-.13.6-.32,1.2-.46,1.74,0,.14-.07.28-.11.42-.17-.52-.35-1-.55-1.53-.3-.78-.6-1.53-.89-2.26l0,0,0,0c-.21-.52-.41-1-.58-1.52l-.15-.45c0-.16-.12-.33-.18-.48-.12-.31-.25-.6-.37-.89-.27-.56-.52-1.11-.77-1.63s-.53-1.11-.76-1.62a.34.34,0,0,1,0-.1c0-.29.06-.71.13-1.22a30.65,30.65,0,0,0,.37-3.76L36.88,0h-.19s-.13,2.73-.27,5.46A31,31,0,0,1,36,9.19c0,.18-.06.36-.08.52a24.49,24.49,0,0,1-1-2.57,5.17,5.17,0,0,1-.27-1.39.74.74,0,0,1,.07-.35L34,5a1.55,1.55,0,0,0-.1.19,1.58,1.58,0,0,0-.1.51A5.14,5.14,0,0,0,34,7.34a43.31,43.31,0,0,0,2,5.2l.7,1.63c.12.28.23.57.34.86s.09.27.13.42l.15.48c0,.11.07.23.11.34-.57-.29-1.15-.57-1.75-.82l-.9-.36-.92-.31-1-.24c-.39-.08-.47-.08-.67-.12.09-.11.09-.15.09-.2l0-.08a1,1,0,0,0,0-.17,3.84,3.84,0,0,0-.15-.69A11.58,11.58,0,0,0,31.71,12l-.53-1.23a3.86,3.86,0,0,1-.35-1.2l-.35,0a3.84,3.84,0,0,0,.22,1.38l.36,1.27a10.25,10.25,0,0,1,.28,1.26,4.34,4.34,0,0,1,.06.61v.14l0,.28-.06.58a6.15,6.15,0,0,1,1.34.25l.85.31.82.37.8.4a28.08,28.08,0,0,1,3,1.93h0c.19.5.37,1,.55,1.53a21.61,21.61,0,0,1,1.07,4.11l0,.31a.66.66,0,0,1,0,.09h0A7,7,0,0,1,39.76,26a3.57,3.57,0,0,1-.27.93c-.08.14-.15.29-.24.43l-.09.15a10.58,10.58,0,0,0-1.62-2.29c-.44-.5-.93-1-1.39-1.58A6.74,6.74,0,0,1,35,21.83a1.69,1.69,0,0,1-.12-.48,1.53,1.53,0,0,1,0-.63l.06-.44s0-.09,0-.11l-.13-.07L34.52,20c-.4-.22-.52-.28-.76-.39a20.51,20.51,0,0,0-2.65-.93,3.38,3.38,0,0,1-1.86-1.39,8.09,8.09,0,0,1-.61-1c-.09-.19-.18-.38-.28-.56s-.21-.37-.32-.55c-.87-1.33-1.78-2.47-2.49-3.49,0-.06,0-.14,0-.25a6.91,6.91,0,0,1-.09-.86,22.52,22.52,0,0,1,.06-2.66c.07-1,.13-1.95.14-2.68,0-.37,0-.68,0-.89s0-.34,0-.34h-.19V4.3c0,.21,0,.51,0,.87,0,.73-.14,1.7-.24,2.67A22.93,22.93,0,0,0,25,10.53v.28a10.69,10.69,0,0,1-1.07-1.93,2.26,2.26,0,0,1-.2-.75c0-.16,0-.25,0-.25l-.52-.09,0,.35a2.9,2.9,0,0,0,.2.9,13.73,13.73,0,0,0,1.5,2.77c.43.68.94,1.41,1.47,2.19-.19-.1-.4-.19-.62-.28l-.42-.17c-.11,0-.26-.13-.4-.2a8.45,8.45,0,0,1-.87-.48c-.59-.36-1.18-.8-1.8-1.23-1.28-.85-2.77-1.29-3.71-1.87l-.35-.2-.28-.21A2.5,2.5,0,0,1,17.45,9l-.34-.35-.15.1.35.37a2.52,2.52,0,0,0,.44.39l.29.22.35.22c1,.61,2.44,1.1,3.63,1.93.59.44,1.18.9,1.78,1.28a7.35,7.35,0,0,0,.89.52l.43.23.41.17a7,7,0,0,1,.67.33,3,3,0,0,1,.44.31L27,15l0,0c.1.15.2.3.29.46s.2.34.28.51.16.36.25.54a7.67,7.67,0,0,0,.62,1.16,3,3,0,0,0,.22.31,40.49,40.49,0,0,1-4-1.6,41.36,41.36,0,0,1-3.9-2c-.52-.3-.93-.58-1.21-.78l-.43-.33L19,13.4l.42.35c.27.22.67.52,1.16.86a39.55,39.55,0,0,0,3.81,2.27,40.37,40.37,0,0,0,4.09,1.9,12.75,12.75,0,0,0,1.46.48,3,3,0,0,0,.46.1h0a2.69,2.69,0,0,0,.32.13,20.55,20.55,0,0,1,2.51,1,3.25,3.25,0,0,1,.42.23s.06,0,0,.06l0,.16a2.68,2.68,0,0,0,0,.56,3,3,0,0,0,.16.67,7.34,7.34,0,0,0,1.25,2.16c.47.61.94,1.14,1.34,1.64a7,7,0,0,1,1.48,2.41A2.1,2.1,0,0,1,38,29v0c-.15.19-.31.39-.45.6l-.36.56-.25.57a6.88,6.88,0,0,0-.42,1.14c-.24.75-.4,1.48-.57,2.19-.09.36-.18.71-.26,1l-.21,1.09c0-.15-.07-.3-.11-.46-.12-.59-.27-1.24-.47-1.93-.09-.35-.18-.7-.28-1.06l-.39-1.08c-.26-.74-.57-1.46-.86-2.21-.15-.38-.28-.75-.42-1.13l-.24-.65-.17-.47s-.06,0-.1,0h-.14l-.27,0-.79-.07L30.55,27c-.44,0-.87-.14-1.3-.22-.86-.16-1.69-.37-2.49-.59a11.94,11.94,0,0,1-4-1.78,10,10,0,0,1-2-2.21l-.27-.41c0-.06-.07-.11-.1-.16l-.05-.07h0s-.59.29-.31.15h0l.05.07.09.17c.08.12.16.26.25.41a10.09,10.09,0,0,0,2,2.39,12.43,12.43,0,0,0,4.14,2.05c.81.26,1.65.5,2.53.71.44.09.88.2,1.33.27l.68.12.57.08s.09,0,.11,0l0,.1.16.51c.13.39.24.78.37,1.16.26.76.54,1.51.75,2.23l.33,1.05c.08.35.15.69.22,1,.15.66.27,1.3.37,1.91a22.62,22.62,0,0,0,.66,2.94,1.59,1.59,0,0,1,.07.2h0s-.08,1-.2,2.87c0,.1,0,.21,0,.31-.08.55-.16,1.08-.23,1.59-.16,1.12-.3,2.15-.41,3.07,0,.38-.09.73-.13,1.07a0,0,0,0,0,0,0l-.1-.2s0,0,0-.1a4.29,4.29,0,0,1-.23-.69c-.15-.49-.27-1-.42-1.63a8.08,8.08,0,0,0-.66-1.89,4.23,4.23,0,0,0-.64-.9h0l-.14-.3a7.5,7.5,0,0,1-.4-.86c-.33-.77-.71-1.92-1.16-3.33-.24-.7-.47-1.46-.83-2.3-.18-.45-.37-.75-.51-1.16s-.27-.82-.4-1.26A7.94,7.94,0,0,0,27,30.59a11.28,11.28,0,0,0-2.55-2c-.22-.14-.41-.29-.62-.44s-.46-.34-.68-.47c-.47-.29-.92-.54-1.36-.81-.86-.53-1.77-1.08-2-1.78a13.34,13.34,0,0,1-.16-2.55,5,5,0,0,0-.09-.66q-.09-.31-.18-.6c-.13-.38-.28-.74-.41-1.09a28.31,28.31,0,0,1-1.25-3.32,4,4,0,0,1-.12-.94.74.74,0,0,1,0-.24v-.07l-.34-.09a.35.35,0,0,1,0,.1.93.93,0,0,0,0,.28,3.39,3.39,0,0,0,.09,1,29.8,29.8,0,0,0,1.12,3.4c.13.35.26.71.36,1.08q.09.28.15.57a2.63,2.63,0,0,1,.05.57,14,14,0,0,0,.09,2.7,3,3,0,0,0,1,1.3,14.38,14.38,0,0,0,1.28.93c.44.28.89.56,1.31.84.23.15.39.28.6.44s.42.34.64.49a10.16,10.16,0,0,1,2.26,1.88A7.37,7.37,0,0,1,27,33.62c.11.45.22.9.37,1.34s.38.91.49,1.25c.28.74.49,1.52.69,2.22.25.88.47,1.67.69,2.35-.28-.07-.59-.12-.91-.18l-.72-.32c-.31-.13-.57-.31-.87-.47a11.71,11.71,0,0,1-3-2.65c-1.68-2.11-2.86-4.66-4.42-6.84l-2.2-3.1c-.31-.43-.59-.85-.89-1.25a.88.88,0,0,1,0-.24,4.14,4.14,0,0,1,.17-1.09c.12-.47.32-1,.46-1.65a4.24,4.24,0,0,0,.1-1,2.52,2.52,0,0,0-.28-1l-.22-.47L16.27,20c-.16-.29-.32-.58-.46-.85a5.16,5.16,0,0,1-.36-.81,5,5,0,0,1-.24-.75c-.1-.48-.18-.89-.24-1.17s-.14-.46-.14-.46l-.21.07s0,.16.1.43.08.69.15,1.19a5,5,0,0,0,.19.79,5.64,5.64,0,0,0,.31.87l.4.89.21.45.17.45a2,2,0,0,1,.17.87,3.31,3.31,0,0,1-.15.87c-.17.56-.41,1.1-.58,1.59-.05.17-.1.32-.14.47l-.32-.41-1.79-2.27c-.52-.7-1.09-1.26-1.44-1.71a3.22,3.22,0,0,1-.62-1.08,2.05,2.05,0,0,1,0-.28v-.1L10.42,19s0,.06,0,.15a2.6,2.6,0,0,0,0,.44A4,4,0,0,0,11.17,21c.39.53.9,1.06,1.37,1.74l.39.54c-.52,0-1,0-1.52,0a4.93,4.93,0,0,1-1.88-.32h0C7.45,22.19,5.59,21,3.57,20.15l-.09.15c2,.92,3.78,2.13,5.9,2.9h0a6,6,0,0,0,2,.39,11.65,11.65,0,0,1,1.9.13c.29.41.61.83.94,1.28l1,1.33c.33.45.63.95,1,1.44l1.15,1.77c-.21-.15-.42-.3-.65-.44l-.6-.31a6.08,6.08,0,0,0-.64-.25,7.89,7.89,0,0,0-1.32-.26,7.56,7.56,0,0,1-2.3-.49l0,0c-1.11-.46-1.76-1.72-2.94-2.46l-.21.25A7.66,7.66,0,0,1,9.92,27c.18.22.37.45.58.67l-.22,0a26.8,26.8,0,0,0-3.54-.19,18.26,18.26,0,0,1-3.46-.3,4.08,4.08,0,0,1-.61-.17,2.7,2.7,0,0,1-.46-.16l-.38-.18-.1.14.39.2a3.09,3.09,0,0,0,.47.18,3.59,3.59,0,0,0,.63.19,17.5,17.5,0,0,0,3.51.4,26.74,26.74,0,0,1,3.46.28l.6.15.43.17.18.1,0,0a13.8,13.8,0,0,0,2.58.66c.21,0,.39.09.58.14l.54.17c.16.09.33.15.48.24l.47.29a16,16,0,0,1,1.69,1.54,12.12,12.12,0,0,0,1.84,1.66A41.86,41.86,0,0,0,22.46,38a14.44,14.44,0,0,0,2.19,2.31l-.06,0-.21,0-.19,0a1.53,1.53,0,0,1-.5-.39c-.22-.24-.44-.52-.71-.84a5,5,0,0,0-.46-.51,2.48,2.48,0,0,0-.41-.34l-.2-.11,0,0-.15-.06h0l-.13,0a2.2,2.2,0,0,0-1.11,0,3.17,3.17,0,0,0-.82.33,4,4,0,0,1-.92.43,1.08,1.08,0,0,1-.73-.11A8.22,8.22,0,0,1,16.19,37l-.27-.22-.23-.19c-.17-.15-.34-.29-.52-.42-.34-.26-.69-.5-1-.73-1.37-.91-2.66-1.69-3.69-2.43a12.19,12.19,0,0,1-2.26-1.92,3.35,3.35,0,0,1-.43-.63l-.13-.23-.77.24.14.3a4.06,4.06,0,0,0,.47.77,12.53,12.53,0,0,0,2.29,2.2c.87.7,1.93,1.44,3,2.23h0a14.07,14.07,0,0,1-2.56-.43c-.92-.24-1.86-.48-2.57-.61-.36-.07-.66-.09-.87-.13l-.33,0,0,.17.33.05c.2,0,.5.07.85.16.69.15,1.6.42,2.52.69a14.32,14.32,0,0,0,2.63.54,5,5,0,0,0,.64,0c.3.23.6.46.88.7a5.57,5.57,0,0,1,.43.39l.24.22.2.19.52.55c-.48,0-1,0-1.44,0a18,18,0,0,0-2.19.12q-.54.06-1.11.18v0l-1.72-.15L7.64,38.4A5.86,5.86,0,0,1,6,37.15c-.61-.63-1.1-1.34-1.66-2a0,0,0,0,0,0,0,18.54,18.54,0,0,0-4.21-4L0,31.27A19,19,0,0,1,4.05,35.28ZM39.21,106l.08.1A2,2,0,0,1,39,106Z"/></g></g></svg>