<svg xmlns="http://www.w3.org/2000/svg" viewBox="0 0 114.16 112.52"><defs><style>.cls-1{fill:#727272;}</style></defs><g id="Capa_2" data-name="Capa 2"><g id="Ñëîé_1" data-name="Ñëîé 1"><path class="cls-1" d="M0,98.56H.07l0,.12.18-.09.29,0-.24-.07a6.24,6.24,0,0,1,3-1,1.8,1.8,0,0,1,.4.1l.18.09.25.17L4.3,98l.09-.12.18-.23a3.85,3.85,0,0,1,.29-.35c.38-.44.8-.84,1.22-1.24a13.78,13.78,0,0,0,1.25-1.28,6.64,6.64,0,0,0,.55-.73c.14-.19,0-.07.19-.17l.41-.19a13.25,13.25,0,0,1,2.09-1l.39,0,.35-.08h.22v0a11.24,11.24,0,0,0,3.26-.91c.32-.15.63-.32.94-.5a1.29,1.29,0,0,0,.19.58,8.52,8.52,0,0,1,.57.8v0l.46.65a2.62,2.62,0,0,1,.2.65l0,0s0,.19-.13.35a1.9,1.9,0,0,0-.27.65.62.62,0,0,0,.11.46.8.8,0,0,0,.31.27,1.82,1.82,0,0,0,.67.18,1.64,1.64,0,0,1,.51.1c.09,0,.14.18.13.32s-.42.53-.73.73c-1.38.87-2.67,1.82-4,2.73,1.39-.82,2.76-1.7,4.16-2.47a6.06,6.06,0,0,0,.53-.35,1,1,0,0,0,.42-.58.7.7,0,0,0-.29-.74,1.86,1.86,0,0,0-.66-.19,1.18,1.18,0,0,1-.48-.15.44.44,0,0,1-.14-.13.11.11,0,0,1,0-.11,1.63,1.63,0,0,1,.24-.43,1.07,1.07,0,0,0,.23-.78l0,0a3.59,3.59,0,0,0-.23-.88l-.4-.69,0,0a9.78,9.78,0,0,0-.55-.91.75.75,0,0,1,0-.67h0c.65-.41,1.29-.82,1.93-1.17a5.89,5.89,0,0,1,3.86-.68c.73.07,1.47.19,2.23.32s1.57.25,2.33.37l1.44.23c0,.09-.05.17-.07.27-.19.66-.39,1.6-.64,2.68-.06.24-.13.49-.2.73-.18,0-.35-.06-.51-.08a5.38,5.38,0,0,0-3.31.45,3.11,3.11,0,0,0-.4.22l-.11.08s-.08.07-.1,0a.76.76,0,0,0-.09-.09.85.85,0,0,0-.19-.14,2,2,0,0,0-.42-.19,4.9,4.9,0,0,0-1.53-.11l-1.07.06h-.41l.41,0,1.07,0a4.55,4.55,0,0,1,1.45.23,1.74,1.74,0,0,1,.33.18.44.44,0,0,1,.14.13,2.23,2.23,0,0,1,.19.24s.06.13.11.08l.13-.08.27-.14a2.76,2.76,0,0,1,.39-.18,4.9,4.9,0,0,1,3-.14,3.59,3.59,0,0,1,.39.1,7.86,7.86,0,0,1-1,1.91,9.63,9.63,0,0,1-1.36,1.52,14.55,14.55,0,0,1-1.79,1.24c-2.55,1.51-5.4,2.69-7.28,4.06a11.59,11.59,0,0,0-2.11,1.86,5.88,5.88,0,0,0-.48.63l-.17.22.4.28.17-.21a6.6,6.6,0,0,1,.48-.57,11,11,0,0,1,2.07-1.68A17.58,17.58,0,0,1,18,102.29a9.54,9.54,0,0,0,.17,1.82c.07.41.15.82.18,1.21a5.86,5.86,0,0,1,0,.59,2.88,2.88,0,0,1-.06.59,4,4,0,0,1-1,2.14,10,10,0,0,1-1,.7,1.41,1.41,0,0,0-.67,1,1,1,0,0,1-.38-.08,1,1,0,0,0,.39.16h0v-.07a1.3,1.3,0,0,1,.71-.92,9.27,9.27,0,0,0,1.08-.64,4.3,4.3,0,0,0,1.25-2.23c.49-1.64-.26-3.43.17-4.73,1.44-.68,3.05-1.39,4.63-2.23a18.74,18.74,0,0,0,2-1.26,10.58,10.58,0,0,0,1.62-1.66A10.8,10.8,0,0,0,28.88,93c.31-1.11.54-2,.74-2.63.05-.16.09-.31.13-.43,2.11.35,4.21.7,6.25,1a41.55,41.55,0,0,0,8.29.3,25.33,25.33,0,0,0,5.32-1,7.44,7.44,0,0,1-1.32,1.44,13.92,13.92,0,0,1-4.15,2.22c-1.71.65-3.7,1.19-5.68,2a22.91,22.91,0,0,0-5.31,3.2l-1.77,1.31c-.3,0-.63-.1-1-.17a4.61,4.61,0,0,0-.77-.11,2.18,2.18,0,0,0-.44,0l-.42.18c-.46.29-.79.69-1.12.86a11.51,11.51,0,0,0-1.35.56l0,0c-.6.29-.72.88-1.12.94-.22,0-.49,0-.76,0a1.33,1.33,0,0,0-.78.26,24.48,24.48,0,0,1-2.62,1.6h0a.13.13,0,0,0,0,.06l.07,0,.17.07-.14-.08c.92-.41,1.74-1,2.62-1.45.44-.3.88-.13,1.47-.14l.24-.06a1.13,1.13,0,0,0,.2-.13,1.15,1.15,0,0,0,.32-.3l.24-.27c.09-.07.17-.11.25-.18v0c.37-.2.84-.24,1.34-.44s.84-.61,1.21-.79a1.57,1.57,0,0,1,1.16.05l.33.09L29,102.24c-1.22.93-2.22,1.72-2.92,2.28l-1.1.87.44.6,1.17-.77c.74-.49,1.8-1.19,3.1-2s2.5-1.59,3.94-2.47a.61.61,0,0,1-.05.12,21.53,21.53,0,0,0-1,3.34,26.78,26.78,0,0,1-1.69,6,4.08,4.08,0,0,1-1.27,1.47,5.1,5.1,0,0,1-.65.34l.15.46a4.32,4.32,0,0,0,.78-.36,4.6,4.6,0,0,0,1.54-1.59,24.74,24.74,0,0,0,2-5.8l.22.16a1.8,1.8,0,0,1,.77.66c.18.28.09.77.23,1.29a2.83,2.83,0,0,0,.16.36,2.55,2.55,0,0,0,.26.3,2.53,2.53,0,0,1,.47.44,1.41,1.41,0,0,1,.13.24,2.83,2.83,0,0,1,0,.29,3.57,3.57,0,0,1,0,.56,3.71,3.71,0,0,0,.13.84c0,.08,0,.23,0,.17l0-.07a.28.28,0,0,0,0,.07s0,0,0,0a.07.07,0,0,0,0-.06v-.13a3.61,3.61,0,0,1,0-.84,4.91,4.91,0,0,0,0-.57c0-.1,0-.21,0-.32a2,2,0,0,0-.13-.34,2.7,2.7,0,0,0-.46-.53c-.06-.08-.1-.17-.16-.25a1.52,1.52,0,0,1-.09-.28,6.11,6.11,0,0,0-.11-1.41,2.43,2.43,0,0,0-.88-1c-.26-.2-.3-.33-.29-.43s0-.19,0-.19h0a17.19,17.19,0,0,1,.89-2.39,8,8,0,0,1,1.26-1.93,14.88,14.88,0,0,1,3.34-1.47l.9-.25-.18.4s-.06.08,0,.11l.1.07.19.15a2.24,2.24,0,0,1,.59,1,6.18,6.18,0,0,0,.51,1.17,1.86,1.86,0,0,1,.22,1,3.55,3.55,0,0,0,.06,1.07,3.36,3.36,0,0,1,.07-1,2.07,2.07,0,0,0-.11-1.13,6.13,6.13,0,0,1-.36-1.17,3.88,3.88,0,0,0-.19-.64,1.83,1.83,0,0,0-.14-.32l-.1-.15a.49.49,0,0,0-.08-.11c-.08,0,0-.1,0-.14a3,3,0,0,1,.27-.37,2.06,2.06,0,0,1,.16-.15l3-.73c.25.28.62.68,1.07,1.13s.9.89,1.41,1.38l0,.08,0,.06s0,0,0,0l0,.12a4.89,4.89,0,0,1,.06.59,4.27,4.27,0,0,1-.39,1.5c-.22.57-.33,1.25-.51,1.88s-.32,1.25-.49,1.83-.54,1-.72,1.49a2.19,2.19,0,0,0-.13.67,2.13,2.13,0,0,0,.09.51l.16.42s-.05-.15-.13-.43a3.23,3.23,0,0,1,0-.5,2.36,2.36,0,0,1,.18-.62c.2-.43.58-.87.84-1.45s.43-1.19.65-1.82a18.23,18.23,0,0,1,.63-1.76,5,5,0,0,0,.56-1.68V100c.33.34.66.69,1,1a7.22,7.22,0,0,1,1.17,2,5.29,5.29,0,0,1,.29,2,6.62,6.62,0,0,1-.21,1.44l-.14.54.46.16.19-.56a7.74,7.74,0,0,0,.34-1.53,6.26,6.26,0,0,0-.17-2.27,7.86,7.86,0,0,0-1.15-2.32c-1-1.43-2.23-2.61-3-3.56l-.55-.65a16.2,16.2,0,0,0,4.59-2.08,11.44,11.44,0,0,0,3-3.11l.5-.9.32,0c.09.28.17.6.26,1s.24,1,.36,1.58c.26,1.17.53,2.61,1,4.16L56,98a5.12,5.12,0,0,1-.46.54c-.51.55-1.25,1.14-1.93,2a3.93,3.93,0,0,0-.8,1.58,7.09,7.09,0,0,0-.1,1.7c.14,2.18.55,4.23.32,5.75a5,5,0,0,1-.51,1.74c-.21.37-.36.58-.36.58l.37.3a6.75,6.75,0,0,0,.45-.62,5.86,5.86,0,0,0,.69-1.9c.33-1.64,0-3.82,0-5.86a5.82,5.82,0,0,1,.16-1.44h0l.09.1s0-.07,0-.11a.64.64,0,0,0,.39.59c.18.09.34.15.48.21a2.56,2.56,0,0,1,.31.16c0,.12.12.24.17.37a5.48,5.48,0,0,0,.32,1,1.8,1.8,0,0,0,.27.47c.1.13.19.28.31.41a11.84,11.84,0,0,1,1.28,1.5,2.28,2.28,0,0,1,.17,1.88,2.35,2.35,0,0,0,0-2,11.73,11.73,0,0,0-1.16-1.64c-.1-.13-.17-.27-.26-.41a2,2,0,0,1-.19-.42,5.26,5.26,0,0,1-.21-.94c-.06-.18-.13-.36-.21-.55a1.54,1.54,0,0,0-.52-.4c-.31-.14-.59-.35-.56-.38h0l-.06-.08a3,3,0,0,0-.21-.32c-.09-.11-.07-.1-.07-.11l.19-.22,0,0a1.67,1.67,0,0,1,.12-.16c.6-.67,1.34-1.21,2-1.79l.1-.1a9.78,9.78,0,0,0,.57,1c.23.39.46.77.7,1.1a55.7,55.7,0,0,0,5.94,6.9c.91.85,1.65,1.56,2.23,2l.87.72.49-.56-.78-.79c-.5-.49-1.15-1.26-1.93-2.18a53.07,53.07,0,0,1-5-7.25c-.1-.18-.18-.37-.27-.55a20,20,0,0,0,4.33,2,2.1,2.1,0,0,1,.22.36c.21.41.39,1,.63,1.56a4.5,4.5,0,0,0,.49.91,1.51,1.51,0,0,0,1,.57,5.93,5.93,0,0,1,.94.21,1.38,1.38,0,0,1,.36.22,1,1,0,0,1,.21.36,6.86,6.86,0,0,0,.32.86,3.5,3.5,0,0,0,.51.65,5.36,5.36,0,0,1,.78.92.86.86,0,0,1,.11.43.93.93,0,0,0-.08-.45,5.77,5.77,0,0,0-.71-1,3.79,3.79,0,0,1-.44-.66,7.24,7.24,0,0,1-.25-.85,1.32,1.32,0,0,0-.23-.48,1.45,1.45,0,0,0-.44-.32,5.24,5.24,0,0,0-1-.31,1,1,0,0,1-.68-.45,3.78,3.78,0,0,1-.36-.82c-.16-.49-.29-1-.44-1.41,1.09.36,2.23.71,3.34,1a16,16,0,0,1,2.27.87,16.84,16.84,0,0,1,2,1.29c1.24.95,2.34,1.93,3.34,2.71a12.93,12.93,0,0,0,2.63,1.68,4.44,4.44,0,0,0,.84.29l.3.09.11-.48-.28-.08a5.2,5.2,0,0,1-.75-.3,12.46,12.46,0,0,1-2.44-1.7c-1-.8-2-1.82-3.26-2.83a17.25,17.25,0,0,0-2-1.44,15.78,15.78,0,0,0-2.38-1c-3.19-1.11-6.37-2.19-8.29-3.62a7.3,7.3,0,0,1-1.61-1.56c-.06-.28-.12-.57-.16-.87-.24-1.42-.35-2.81-.48-4-.06-.59-.11-1.13-.19-1.64a12.1,12.1,0,0,0,4,.48,21.91,21.91,0,0,0,4-.61,28.82,28.82,0,0,0,1.34,3.66.12.12,0,0,1,0-.06,9.76,9.76,0,0,0,2.08,3.57c.88,1,1.81,2,2.61,3l.4-.28c-.74-1.14-1.62-2.18-2.4-3.24a10.74,10.74,0,0,1-1.75-3.39l0,0a.56.56,0,0,1,0-.12h.08a7,7,0,0,1,.85-.15,8.42,8.42,0,0,1,.87,0c.06,0,.08,0,.14.09a1.66,1.66,0,0,0,.3.41,3.57,3.57,0,0,0,1.65,1,7.42,7.42,0,0,1,1.71.54h0c.77.31,1.37,1,2.21,1.31-.81-.35-1.29-1.11-2.12-1.54,0,0,0,0,0,0-.58-.24-1.2-.42-1.75-.61a3,3,0,0,1-1.37-1,1.63,1.63,0,0,1-.21-.34.77.77,0,0,0-.2-.28,1.33,1.33,0,0,0-.35-.13c-.32,0-.62-.08-.94-.1a6.54,6.54,0,0,0-1,.09.79.79,0,0,1-.22,0c-.28-.87-.5-1.78-.71-2.7l.26-.07c.79-.2,1.59-.42,2.4-.61s1.46-.19,2.3-.25a12.92,12.92,0,0,1,1.41,0,1.3,1.3,0,0,0,.45.75c.42.37.85.59,1.21.87.17.13.34.3.35.4s0,.4.08.73c.28.64.87.78,1.23,1,.77.42.77,1.64,1.57,2.35a2.56,2.56,0,0,0,.25.16c0,.07,0,.13-.07.24l-.18.39-.08.19,0,.09h.1c.58,0,1.1-.18,1.5.08.16.22.23.54.38.79a4.84,4.84,0,0,0-.25-.91,2.68,2.68,0,0,0-.81-.09,6.29,6.29,0,0,1-.63,0h-.06l0-.07.08-.13.14-.26c0-.1.2-.29.16-.39s-.26-.17-.36-.26a3.2,3.2,0,0,1-.64-1.23,2.38,2.38,0,0,0-.85-1.3c-.43-.28-.88-.51-1-.8,0-.06,0-.17,0-.27a1.24,1.24,0,0,0-.53-1.19c-.39-.35-.81-.61-1.11-.91a1.29,1.29,0,0,1-.13-.18,6.62,6.62,0,0,1,2.54.81c1.58.85,3,2.44,4.83,3.56a48.57,48.57,0,0,0,4.7,2.4c.35,1.62,1.3,2.85,1.67,4.26a7.77,7.77,0,0,1,.18,1.14,3.38,3.38,0,0,0,.17.6,2.88,2.88,0,0,0,.32.52,1.81,1.81,0,0,1,.42,1c0,.19,0,.38,0,.58a2.28,2.28,0,0,0,.17.58h0a2.23,2.23,0,0,0,.53.65,2.54,2.54,0,0,1-.44-.68h0a1.75,1.75,0,0,1-.12-.55c0-.19,0-.38,0-.59a1.89,1.89,0,0,0-.36-1.15c-.49-.6-.28-1.39-.45-2.21-.25-1.35-.92-2.55-1.21-3.75a47.11,47.11,0,0,1,4.52,2.3,16.6,16.6,0,0,1,3,2.16,7.8,7.8,0,0,1,.72.73l.25.26.38-.31-.25-.28a10.55,10.55,0,0,0-.73-.78,17.12,17.12,0,0,0-3-2.33,50.81,50.81,0,0,0-4.65-2.54A54,54,0,0,1,82,92.75c-1.44-.94-2.64-2.23-4.09-3.26l.63.22a17.14,17.14,0,0,0,5.37,1.5A14.56,14.56,0,0,0,85.35,91v.07l1.56-.25a.45.45,0,0,1,0-.08,4,4,0,0,0,1,.06.88.88,0,0,1,.71.3A5.67,5.67,0,0,0,90,92.55c.59.34,1.2.61,1.78.93a3.83,3.83,0,0,1,1.43,1.34,3.91,3.91,0,0,0-1.34-1.49c-.56-.37-1.15-.7-1.68-1.07a5.25,5.25,0,0,1-1.27-1.47,1.47,1.47,0,0,0-.46-.39l.63-.12L89,89.54l-1.45.16a20.69,20.69,0,0,1-3.65.31,16.32,16.32,0,0,1-4.76-1.81,17.28,17.28,0,0,0-3-1.18,14.31,14.31,0,0,0-3.36-.38,38.21,38.21,0,0,0-6.28.78,24,24,0,0,1-5,.47,9.51,9.51,0,0,1-2.2-.36c-.08-.47-.18-1-.29-1.66a35,35,0,0,0,3.56-1.58c1.08-.54,2.16-1.08,3.35-1.55a21.07,21.07,0,0,1,3.84-1.15,15.75,15.75,0,0,1,3.65-.26.33.33,0,0,0,0,.06,2.14,2.14,0,0,0,1.07.88,5.23,5.23,0,0,0,.8.29c.3.06.59.09.87.15A1.93,1.93,0,0,1,77,83a2.6,2.6,0,0,1,.33.82,1,1,0,0,0,.34.47l.23.16a2.76,2.76,0,0,0,.27.08,2.48,2.48,0,0,0,1,0,1.3,1.3,0,0,1,.79.1,1.44,1.44,0,0,1,.51.53c.26.4.43.78.6,1a1.63,1.63,0,0,0,.28.35,1.78,1.78,0,0,1-.25-.36c-.15-.25-.29-.63-.52-1.07a1.54,1.54,0,0,0-.53-.62,1.42,1.42,0,0,0-.91-.19,2.56,2.56,0,0,1-.88,0,1.42,1.42,0,0,1-.18-.08L77.87,84a.63.63,0,0,1-.2-.32,2.43,2.43,0,0,0-.34-1,2.11,2.11,0,0,0-.94-.54L75.54,82a4.33,4.33,0,0,1-.66-.3,2,2,0,0,1-.34-.22,17.32,17.32,0,0,1,3.84.84,31.13,31.13,0,0,1,4.16,1.91,10.06,10.06,0,0,0,3.54,1.16c.4,0,.8.09,1.19.09,1.13,0,2.17,0,3.13,0,.09.09.25.24.49.45a15.46,15.46,0,0,1,1.4,1.56,23.24,23.24,0,0,1,3.19,5.65l.4.84.49.8a11.38,11.38,0,0,0,1.08,1.45,27.78,27.78,0,0,0,2.25,2.18c.67.61,1.22,1.12,1.57,1.5l.56.6.38-.32-.55-.63c-.34-.42-.88-1-1.51-1.61a28.91,28.91,0,0,1-2.09-2.23,10.63,10.63,0,0,1-.93-1.4l-.42-.76-.33-.81c-.09-.25-.18-.49-.28-.74h.64a4.52,4.52,0,0,1,2.8.49,4.93,4.93,0,0,0,1.37,1c.55.15,1,.11,1.43.22a4.67,4.67,0,0,1,1.31.44,4.58,4.58,0,0,0-1.28-.57c-.4-.14-.91-.16-1.37-.34s-.76-.63-1.2-1a3.15,3.15,0,0,0-1.59-.72,12.27,12.27,0,0,0-1.46-.14l-1-.09a22.21,22.21,0,0,0-2.45-4.51c-.26-.38-.52-.71-.75-1,.25.05.51.1.76.17a15.62,15.62,0,0,1,1.71.52A14.15,14.15,0,0,1,99.84,89a8,8,0,0,1,.65.61c.16.19.29.36.4.5l.34.42.64-.39-.35-.48-.42-.59a6.85,6.85,0,0,0-.66-.7,17.15,17.15,0,0,0-6.74-3.85,14.91,14.91,0,0,0-2-.5c-1.44-.23-2.91-.15-4.31-.28-.35,0-.68-.09-1-.13s-.68-.15-1-.26a10.32,10.32,0,0,1-1.92-.9c-.66-.37-1.32-.79-2-1.18l-1.08-.58c-.36-.2-.78-.34-1.17-.51a20.49,20.49,0,0,0-4.81-1.28,17.2,17.2,0,0,0-4.91,0A25.44,25.44,0,0,0,65,80c-1.37.45-2.62,1-3.69,1.45s-2,.82-2.78,1.1A89.18,89.18,0,0,1,57.3,70c0-.18,0-.56-.06-1a6.48,6.48,0,0,1,2.3-1.32,28.43,28.43,0,0,1,6-1.06,31.46,31.46,0,0,0,3.87-.64l.31-.08h0l.74,0a4.41,4.41,0,0,1,1.55.18,3.18,3.18,0,0,1,.87.56l1.19,1.15c.88.82,1.79,1.6,2.59,2.45.19.22.39.43.57.65l.26.34a4.57,4.57,0,0,1,.38.57l.38.64.19.31s0,.14.1.13l.16-.06.64-.25.32-.12a3.34,3.34,0,0,1,.36-.13,6.36,6.36,0,0,1,2.7-.12c.84.1,1.58.23,2.1.31l.83.09.14-1.19-.77-.19c-.49-.13-1.18-.36-2.08-.58l-.06,0,.08-.05a5.61,5.61,0,0,1,1.5-.8l.37-.12.35.09a5.44,5.44,0,0,1,.88.4,9.69,9.69,0,0,0,1,.52,5.1,5.1,0,0,0,.55.19,2.65,2.65,0,0,0,.56,0c.35,0,.68-.1,1-.15.56-.13.92-.24.92-.24v-.06s-.36.1-.92.21a8.36,8.36,0,0,1-1,.1,1.83,1.83,0,0,1-.52,0,4.71,4.71,0,0,1-.52-.21,10.45,10.45,0,0,1-1-.57,7.12,7.12,0,0,0-.7-.39l.89-.12c1.33-.17,2.67-.36,3.67-.41l1.67-.12v-.34L90,68.49c-1,0-2.35.17-3.69.3a8.28,8.28,0,0,0-2,.33h0v0a6.2,6.2,0,0,0-1.61.79l-.6.42a6.63,6.63,0,0,0-2.41,0s0,0,0,0l-.09,0-.17,0h0s0,0,0,0l0-.1L79.23,70a.66.66,0,0,0-.12-.24l-.28-.45c-.19-.3-.39-.56-.59-.85-.82-1.08-1.69-2-2.43-2.89-.39-.46-.76-.9-1.11-1.33-.2-.21-.42-.43-.64-.63a26,26,0,0,0,2.66-2.56c.15,0,.31.06.48.11a5.75,5.75,0,0,1,1.52.65l1.74,1c.6.34,1.18.71,1.74,1l1.55.8,1.52.78.12-.31-1.49-.82-1.52-.85-.49-.29c.1-.08.24-.17.41-.28a6.6,6.6,0,0,1,.66-.35l.38-.14a1.12,1.12,0,0,1,.41,0l.42,0,.41.09a5.52,5.52,0,0,1,.71.2c.21.07.37.16.49.21L86,63l0-.06-.19-.08a4.46,4.46,0,0,0-.48-.23,6.63,6.63,0,0,0-.72-.25l-.41-.11-.43-.08a1.14,1.14,0,0,0-.45,0,2.58,2.58,0,0,0-.42.12,5.48,5.48,0,0,0-.71.29c-.21.1-.37.2-.49.27a.85.85,0,0,0-.14.1h0l-.88-.55L79,61.34a6.53,6.53,0,0,0-1.56-.73l.2-.1a6.42,6.42,0,0,1,2.94-.75,13.31,13.31,0,0,1,4.63.89c1.73.6,3.59,1.47,5.51,2.22L91,63a4,4,0,0,1,1,1.29,16.22,16.22,0,0,1,1.1,4c.21,1.15.4,1.91.4,1.91l.29-.08s-.17-.75-.35-1.91c-.09-.55-.19-1.22-.34-1.92a5.63,5.63,0,0,0,.54.51,3.11,3.11,0,0,0,.48.34,1.74,1.74,0,0,0,.63.11c.22,0,.43,0,.63,0a.83.83,0,0,1,.53.29,3.2,3.2,0,0,1,.49,1.3,7.61,7.61,0,0,0,.31,1.25,2.09,2.09,0,0,0,.21.45,1.31,1.31,0,0,0,.24.3.92.92,0,0,0,.19.15l.07,0,0,0-.06,0a.93.93,0,0,1-.18-.15,1.21,1.21,0,0,1-.22-.29,1.89,1.89,0,0,1-.2-.45,8.37,8.37,0,0,1-.26-1.24c0-.23-.09-.47-.16-.71a2.15,2.15,0,0,0-.33-.68,1,1,0,0,0-.62-.39c-.23,0-.44,0-.64-.06a1.39,1.39,0,0,1-.54-.12,2.69,2.69,0,0,1-.41-.33c-.25-.23-.44-.46-.58-.61L93,65.69l0,.06A10.14,10.14,0,0,0,92.37,64a4.65,4.65,0,0,0-.34-.62l.08,0c.47.2,1,.4,1.45.58a9.09,9.09,0,0,0,3.13.59l.62,0,.45.42a4.17,4.17,0,0,0,.45.36l.45.36c.31.23.62.51,1,.8s.64.61,1,1,.6.71.94,1.07l.15.15a.7.7,0,0,0,.23.11.62.62,0,0,0,.23,0l.18,0a6.36,6.36,0,0,0,.66-.18c.44-.14.86-.28,1.25-.43a13.18,13.18,0,0,1,2.19-.62c1.31-.24,2.2-.38,2.2-.38l0-.33s-.88.11-2.22.33a13.75,13.75,0,0,0-2.25.57l-.74.25c.14-.13.3-.27.46-.43A11.48,11.48,0,0,0,105,66.2a6.53,6.53,0,0,0,.55-.9,2.53,2.53,0,0,0,.29-1.1,1.35,1.35,0,0,0-.12-.57l-.06-.12,0,0s0,0,0,0l.07,0a5,5,0,0,1,.92-.17l.89,0c.28,0,.54,0,.79-.06A5,5,0,0,0,109,63a3.41,3.41,0,0,0,.49-.21l.4-.25,0,0-.4.24a2,2,0,0,1-.48.19,3.51,3.51,0,0,1-.65.14c-.24,0-.51,0-.79,0l-.88,0a4.57,4.57,0,0,0-1,.15l-.17,0-.09,0h0s0,0,0,0l.12.18a.66.66,0,0,1,.06.12,1.08,1.08,0,0,1,.09.5,2.29,2.29,0,0,1-.3,1,5.08,5.08,0,0,1-.55.84,11,11,0,0,1-1.21,1.29,11.21,11.21,0,0,1-1.14.93l-.25,0a.36.36,0,0,1-.14,0,.32.32,0,0,1-.1,0s0,0-.08,0a.94.94,0,0,0-.1-.1c-.29-.34-.6-.73-.91-1.1s-.64-.69-1-1-.65-.6-1-.85l-.46-.38a3.22,3.22,0,0,1-.39-.33l-.06-.06.19,0a8,8,0,0,0,1.4-.49,14.9,14.9,0,0,0,2.24-1.36,20,20,0,0,1,3.1-1.93,5.1,5.1,0,0,1,.9-.35l.33-.11L106,59l-.38.09a6.57,6.57,0,0,0-1,.32,21.21,21.21,0,0,0-3.39,1.79,13.53,13.53,0,0,1-2.11,1.08,5.58,5.58,0,0,1-1.15.31,4.11,4.11,0,0,1-.6.08h-.61c-1.65-.08-3.36-1.09-5.26-2S87.84,58.76,86,58a16.94,16.94,0,0,0-5-1.4c.27-.22.53-.43.78-.6l.28-.17.14-.09.12-.06a4.1,4.1,0,0,1,.5-.18,5,5,0,0,1,1.19-.15,15.67,15.67,0,0,1,2.42.17c.76.09,1.45.18,2,.23a13.78,13.78,0,0,0,1.42.07l.53,0,0-1.13c.36.07.81.12,1.18.17.78.11,1.6.29,2.43.45s1.62.32,2.47.41l1.32.36,3.08.84.86.23a4.75,4.75,0,0,0,1.89,0l.47-.1.46-.15q.67-.24,1.32-.54l.2.12a2.4,2.4,0,0,0,.42.18,3.1,3.1,0,0,0,.58.13,4.88,4.88,0,0,0,.68,0,6.67,6.67,0,0,0,.75-.06,5.76,5.76,0,0,0,.79-.15l.79-.23a3.15,3.15,0,0,1,.79-.15,1.74,1.74,0,0,1,.75.16,4.55,4.55,0,0,1,.64.39c.21.14.4.24.58.37a3.36,3.36,0,0,0,.91.46,2.07,2.07,0,0,0,.38.05v-.06a1.52,1.52,0,0,1-.36-.06,3,3,0,0,1-.89-.47l-.57-.38a3.82,3.82,0,0,0-.65-.42,1.78,1.78,0,0,0-.79-.2,3.33,3.33,0,0,0-.83.12c-.27.07-.53.15-.79.2a7.13,7.13,0,0,1-.77.11,6.19,6.19,0,0,1-.73,0,4,4,0,0,1-.64-.08,2.3,2.3,0,0,1-.52-.14,3.26,3.26,0,0,1-.32-.15c.57-.27,1.12-.55,1.66-.79,1.08-.48,2.08-.93,2.94-1.3l1.19-.44a9.7,9.7,0,0,1,.94-.25l.82-.21,0-.33L113,53a9.92,9.92,0,0,0-1,.25l-1.21.42c-.57.23-1.19.49-1.85.78l0-.12c0-.12.08-.26.12-.41s.08-.32.13-.49a.94.94,0,0,0,0-.16s0,0,0,0a.38.38,0,0,0,.15,0,.67.67,0,0,0,.29-.12,1.15,1.15,0,0,0,.23-.21,2.63,2.63,0,0,0,.35-.52,9.67,9.67,0,0,0,.48-1.12c.13-.37.25-.71.36-1s.18-.54.25-.71.12-.25.12-.25l0,0-.13.25c-.07.17-.17.41-.28.7s-.24.63-.39,1a8,8,0,0,1-.51,1.07,2.78,2.78,0,0,1-.35.46.67.67,0,0,1-.4.23.22.22,0,0,1-.11,0,.88.88,0,0,0-.21,0c0,.13-.08.25-.13.36s-.1.33-.15.48l-.14.4-.11.29-.06.13-.69.3c-1.09.46-2.2,1.07-3.37,1.44l-.43.14-.44.08a4.46,4.46,0,0,1-.88.09,5.84,5.84,0,0,1-.84-.1l-.85-.24-2.13-.62.54-.06a6.12,6.12,0,0,0,2.7-1.26,16.42,16.42,0,0,0,2-1.95c1.21-1.33,2.36-2.59,3.85-3l-.18-1.19a6.13,6.13,0,0,0-2.58,1.08,24.74,24.74,0,0,0-2.11,1.74c-1.31,1.19-2.6,2.19-3.95,2.23a13,13,0,0,1-4.58-.87c-.81-.25-1.63-.53-2.5-.75a12.41,12.41,0,0,0-3.26-.46c-.14.17-.28.32-.42.47l-.34.38c-.13.15-.27.33-.44.5l-.8-.15a19.09,19.09,0,0,0-2.77-.35,7.47,7.47,0,0,0-1.78.13,5.22,5.22,0,0,0-1,.3l-.25.11-.23.12-.44.24a18.41,18.41,0,0,0-3.09,2.47c-1,.9-1.86,1.85-2.79,2.75a21.41,21.41,0,0,1-2.81,2.38c-1.65,1.15-4,1.32-6.39,1.46a31.69,31.69,0,0,0-6.89.85,10.88,10.88,0,0,0-1.6.58c.05-.23.1-.46.16-.68a15.75,15.75,0,0,1,.49-1.62,4.72,4.72,0,0,1,.52-1l.25-.11a3.74,3.74,0,0,1,1.23-1,15,15,0,0,1,2-.9c.74-.3,1.55-.59,2.42-1a8,8,0,0,0,2.64-2c.2-.26.38-.55.57-.83s.25-.49.38-.74c.22-.49.41-1,.59-1.44.34-1,.57-1.85.83-2.58a5,5,0,0,1,1-1.94l.38,0c.81-.05,2-.07,3.44-.14a27.23,27.23,0,0,0,4.6-.58l.17,0,2.21.66a1.86,1.86,0,0,1,.1.2,4.65,4.65,0,0,1,.13,1.92l0,.16s0,.08,0,.1l.09.06.21.13.38.3c.24.21.46.41.66.57a2.92,2.92,0,0,0,.5.35l.21.11,0-.06-.2-.11a3.1,3.1,0,0,1-.48-.36l-.64-.6c-.11-.11-.24-.22-.37-.33l-.2-.14s0,0,0-.15a5.29,5.29,0,0,0,0-2l.48.14A15.34,15.34,0,0,1,84.5,49a2.46,2.46,0,0,1,.51.31l.39.26.33.23.17-.27-.33-.25L85.18,49a3.6,3.6,0,0,0-.52-.34,16.75,16.75,0,0,0-3-1.38l-2.28-.78.75-.26a8.35,8.35,0,0,0,1.4-.56l.34-.16.26-.13c.06,0,.12-.1.18-.09l.1,0,0,0h0l.08,0,.66.34c.88.46,1.77.89,2.68,1.28a16.7,16.7,0,0,0,2.77.93,4.64,4.64,0,0,0,.76.11,1.83,1.83,0,0,0,.41,0,1.4,1.4,0,0,0,.42,0,4.23,4.23,0,0,0,.74-.21,3.89,3.89,0,0,0,.66-.29l.05,0a7.65,7.65,0,0,1,.83,0,6.43,6.43,0,0,1,1.86.64,7.44,7.44,0,0,0,1.12.43,3.59,3.59,0,0,0,.57.11l.06.05a1.4,1.4,0,0,0,.3.18,2.2,2.2,0,0,0,.41.12,4.12,4.12,0,0,0,1,0A3.62,3.62,0,0,1,99,49a2.73,2.73,0,0,1,.52.19c.17.07.33.17.49.25a4.67,4.67,0,0,1,.43.3,2.92,2.92,0,0,1,.38.29,5.71,5.71,0,0,1,.53.48l.18.21,0,0-.18-.21a6.29,6.29,0,0,0-.52-.52l-.37-.31c-.13-.11-.28-.2-.43-.31a4.85,4.85,0,0,0-.49-.29,2.66,2.66,0,0,0-.55-.23,4.36,4.36,0,0,0-1.13,0,3.86,3.86,0,0,1-.93-.05l-.09,0a6,6,0,0,0,2.22-.8,17.59,17.59,0,0,0,1.75-1.19l1.2-.89.46-.32-.15-.29-.47.31-1.22.86a18.46,18.46,0,0,1-1.75,1.12,5.37,5.37,0,0,1-2.13.71,4,4,0,0,1-2.14-.56,6.91,6.91,0,0,0-1.94-.73A12.83,12.83,0,0,0,93.78,46L95,44.88l.09.09.26.28a2.72,2.72,0,0,0,.32.25v0a.53.53,0,0,0,.24.14.58.58,0,0,0,.29,0,2,2,0,0,0,.5-.19,2.88,2.88,0,0,1,.45-.19l.24-.08.23-.08.49,0a1.93,1.93,0,0,1,.48,0,2,2,0,0,1,.49.08l.48.12,0-.06-.49-.14a2.66,2.66,0,0,0-.49-.1,2.07,2.07,0,0,0-.5,0l-.5,0a1.29,1.29,0,0,0-.25.06l-.24.07a2.46,2.46,0,0,0-.48.16,1.45,1.45,0,0,1-.45.14.46.46,0,0,1-.2,0,1.18,1.18,0,0,1-.19-.11h0c-.08-.08-.17-.13-.25-.22l-.23-.29-.06-.08a12.48,12.48,0,0,1,1.2-1,3.51,3.51,0,0,1,.45-.28,1.74,1.74,0,0,1,.33-.17l.28-.13-.3-1.16-.36.13a3.29,3.29,0,0,0-.42.18c-.16.08-.34.17-.54.29A26.37,26.37,0,0,0,93,44.75a8.75,8.75,0,0,1-1.85,1.17,3.33,3.33,0,0,1-1,.28.81.81,0,0,1-.22,0l-.24,0a4.22,4.22,0,0,1-.55-.12,23.83,23.83,0,0,1-4.87-2.44l-1.61-1-.13-.09-.14.05-.28.12-.57.24-.71.28a7.12,7.12,0,0,1-1.24.39,7.9,7.9,0,0,1-1.24.28,16.46,16.46,0,0,1-2.47.26,20.93,20.93,0,0,0,2-1.26l.34-.24a3,3,0,0,0,.39-.32l.74-.69.75-.69.27-.3.6-.06c.46,0,1-.19,1.55-.29a12.3,12.3,0,0,1,3.5-.51c.61,0,1.29.25,2,.39.31.07.62.1.94.14l.56.19a4.37,4.37,0,0,0,.62.17l.65.13a5.79,5.79,0,0,1,.63.17,2.81,2.81,0,0,1,.57.3,10.75,10.75,0,0,1,.93.72,4,4,0,0,0,.69.47l.27.13,0,0-.27-.14a4.36,4.36,0,0,1-.67-.49,11.37,11.37,0,0,0-.91-.76,3.64,3.64,0,0,0-.58-.33,5.24,5.24,0,0,0-.64-.2l-.64-.17-.25-.07a3,3,0,0,0,.42,0,10.71,10.71,0,0,0,4.3-1.56l.9-.54.73,0h.14l.13,0,.28.06a6.64,6.64,0,0,1,.63.21,4.77,4.77,0,0,0,.7.2,1.58,1.58,0,0,0,.38,0l.38-.07.36-.13.34-.16.63-.36a4.89,4.89,0,0,1,1.14-.55l1.21-.15v-.06l-1.22.11a5.26,5.26,0,0,0-1.18.53l-.64.33-.34.15-.34.11-.35,0c-.11,0-.22,0-.34,0a5.75,5.75,0,0,1-.66-.23,5.41,5.41,0,0,0-.63-.24l-.31-.09-.17,0h-.32c.67-.43,1.29-.87,1.85-1.26.93-.66,1.71-1.21,2.27-1.55.28-.19.5-.31.65-.4l.23-.14-.19-.47-.24.12-.69.36c-.59.31-1.41.8-2.38,1.39s-2.11,1.27-3.35,1.87a9.82,9.82,0,0,1-3.86,1.11l.22-.15c1-.72,2.47-1.66,3.81-2.77a15.75,15.75,0,0,0,1.84-1.81,10.33,10.33,0,0,0,1.3-1.92c.08-.16.16-.3.23-.45l.17-.42a4.79,4.79,0,0,0,.24-.69l.17-.63L98,30s-.07.21-.18.59a3.61,3.61,0,0,1-.24.66l-.17.4c-.06.13-.15.27-.22.42A9.76,9.76,0,0,1,96,33.88a15.74,15.74,0,0,1-1.83,1.71l0,0c0-.2.06-.44.09-.73s0-.37.06-.56a4.55,4.55,0,0,1,.1-.61,4.37,4.37,0,0,1,.17-.62,3.48,3.48,0,0,1,.33-.55l.41-.52a6.45,6.45,0,0,0,.37-.54c.06-.09.1-.19.15-.28s.08-.19.11-.28.14-.36.2-.53A3.14,3.14,0,0,0,96.2,30q0-.21.09-.36c0-.2.07-.31.07-.31h0l-.08.3c0,.1-.06.22-.09.35a4.59,4.59,0,0,1-.14.45q-.1.24-.21.51l-.12.27-.15.27c-.12.17-.25.33-.39.5l-.42.51a2.57,2.57,0,0,0-.38.57,3.32,3.32,0,0,0-.22.65,5.44,5.44,0,0,0-.13.63c0,.2-.07.39-.1.56,0,.34-.1.63-.14.81l-.06.28c-1.2.91-2.44,1.69-3.39,2.31l-.92.61h-.1c-.34-.08-.68-.14-1-.24-.68-.17-1.36-.44-2.13-.56a13.12,13.12,0,0,0-4,.22c-.53.06-1,.15-1.44.16h-.06c-.33-.43-.65-.85-1-1.26a1.5,1.5,0,0,0,0-.22c0-.16.08-.33.11-.52s.11-.36.2-.53A4.35,4.35,0,0,1,81.91,34a10,10,0,0,1,1.55-.7l1.75-.6.11,0h.23l.52,0,.5.09A2.86,2.86,0,0,1,87,33a4.25,4.25,0,0,1,.43.31c.29.23.56.49.84.73a6.54,6.54,0,0,0,.89.68l.51.21a2,2,0,0,0,.55,0,2.33,2.33,0,0,0,.52-.13l.51-.17c.17,0,.34-.11.51-.15l.52-.1v-.06l-.52.09a4.42,4.42,0,0,0-.52.14l-.51.16a3.1,3.1,0,0,1-.51.11,1.73,1.73,0,0,1-.51,0,5.11,5.11,0,0,1-.48-.22,7.67,7.67,0,0,1-.85-.68c-.27-.25-.53-.53-.82-.77a2.58,2.58,0,0,0-.45-.35,2.91,2.91,0,0,0-.49-.27l-.55-.13h0c.31-.1.62-.21.92-.33l1-.47a2.87,2.87,0,0,0,.41,0,7.4,7.4,0,0,0,1.29-.2l.7-.17c.24,0,.49-.1.73-.13,1-.12,2-.13,2.74-.3a3.31,3.31,0,0,0,.5-.13,1.89,1.89,0,0,0,.37-.15l.32-.16,0-.05-.31.15a2,2,0,0,1-.37.13,2.29,2.29,0,0,1-.5.12,8.89,8.89,0,0,1-1.27.13c-.46,0-1,0-1.47.07-.25,0-.5.06-.74.1l-.71.13a8.3,8.3,0,0,1-.91.11,6.67,6.67,0,0,0,.71-.34l.74-.44,1.33-.81c.81-.54,1.44-1.06,1.9-1.39l.71-.54-.25-.42-.74.46c-.47.28-1.13.74-2,1.18l-1.35.67-.74.36c.17-.31.34-.63.52-1s.24-.49.37-.74l.1-.17a1.43,1.43,0,0,0,.11-.21l.18-.4c.06-.11.11-.21.16-.32s.21-.23.36-.37.41-.38.66-.58.52-.39.8-.59a9.42,9.42,0,0,1,.84-.51,6.79,6.79,0,0,1,.77-.38,4.19,4.19,0,0,1,.56-.21l.21-.07v-.06l-.22.07c-.14.05-.34.09-.57.19a6.26,6.26,0,0,0-.79.34c-.29.12-.58.3-.88.46s-.58.35-.84.55-.37.26-.53.39c.32-.66.61-1.29.86-1.78.39-.78.64-1.3.64-1.3l-.25-.18-.68,1.28c-.42.77-.95,1.79-1.47,2.82l-.19.38c0,.06-.06.12-.1.17l-.12.19c-.14.26-.28.5-.4.74-.26.48-.5.91-.72,1.27l-.23.34-1.59.58c-.58.17-1.18.29-1.77.44l-1.81.45a10.78,10.78,0,0,0-1.81.63,5.88,5.88,0,0,0-2.86,2.51,5.52,5.52,0,0,0-.33.7l-.36-.32-.2-.19-.15-.15-.11-.12a.39.39,0,0,1-.08-.1.72.72,0,0,1-.14-.24.93.93,0,0,1,0-.57,7.15,7.15,0,0,1,1-1.7l-.5-.48L78,30.51a19.07,19.07,0,0,0,.74-1.84l.34-1,.08-.23v0a.09.09,0,0,0,0-.05l0,0,0,0,.18-.09.38-.17.79-.29c1.08-.35,2.21-.63,3.36-.94a18.43,18.43,0,0,0,3.71-1.37,1.17,1.17,0,0,0-.07-.53l.67-.37a25.57,25.57,0,0,1,2.48-1.18l.17-.07h.21a6.17,6.17,0,0,1,.76.09,7.93,7.93,0,0,0,.89.13l.45,0h.44l.78,0,.55,0h.21v0l-.21,0c-.13,0-.32,0-.55,0h-.78l-.43,0-.44-.07a7.88,7.88,0,0,1-.87-.19l-.35-.09c1.54-.6,2.9-1.1,2.9-1.1l-.09-.32s-1.9.61-3.79,1.27c-.93.39-1.88.72-2.56,1.1l-.59.3s0-.09,0-.11a2.21,2.21,0,0,1,0-.77A3.65,3.65,0,0,1,88.23,21a15.9,15.9,0,0,1,1.17-1.31,8.61,8.61,0,0,0,1.19-1.45l-.38-.3A21.14,21.14,0,0,1,88,20c0-.38-.08-.82-.08-1.25a2.87,2.87,0,0,1,0-.39c0-.13,0-.26,0-.39s.07-.49.1-.69c0-.4.09-.67.09-.67H88.1s0,.26-.12.66l-.14.69c0,.12,0,.25-.07.38s-.06.25-.07.41,0,.56,0,.81,0,.49,0,.68c0,0,0,0,0,.06l0,0a4.6,4.6,0,0,0-1.07,1.79,4.22,4.22,0,0,0-.15,1.17c0,.25,0,.3,0,.41s-.12.24-.26.29l-.11,0-.2.05-.42.1c-.54.15-1.11.23-1.68.34l-2.08.35a.56.56,0,0,0,0-.12,15.39,15.39,0,0,0,.42-1.49l0,0s0-.13.09-.35.12-.54.25-.91.27-.81.45-1.27.39-.93.6-1.41.44-.94.67-1.37.44-.83.63-1.17l.64-1.12,0,0-.67,1.1c-.2.34-.43.73-.66,1.15s-.48.89-.72,1.35-.47.94-.66,1.39c-.07.17-.14.33-.2.49.19-1.22.36-2.43.49-3.34s.24-1.58.24-1.58L83,16.15s-.12.63-.29,1.58c-.13.75-.29,1.7-.47,2.69-.08-.47-.18-1-.27-1.56-.07-.37-.15-.74-.22-1.09s-.15-.67-.22-.94c-.14-.55-.24-.92-.24-.92l-.06,0s.07.37.19.92a9.35,9.35,0,0,1,.16.95c.05.35.1.73.15,1.1.07.75.16,1.5.17,2.07s0,.94,0,.94a19.31,19.31,0,0,1-.73,2.61,3.61,3.61,0,0,1-.17.47l-.76.16-.89.24a4,4,0,0,0-.45.16l-.59.22-.37.15a3.7,3.7,0,0,0-.18.4l-.17.42-.1.22-.36.85c-.22.56-.57,1.12-.85,1.68l-.87,1.65c-.08.11-.15.23-.23.36a6.37,6.37,0,0,0-.78,1.67,3.69,3.69,0,0,0-.07,2.08,4.5,4.5,0,0,0,1,1.77l.29.32a3.18,3.18,0,0,0,.25.26l.46.47.18.19.09.1c0,.06.11.12.15.18a3.47,3.47,0,0,1,.29.38c0,.07.09.13.1.19l-.17.17a3.05,3.05,0,0,1-.36.29l-.18.12-.1.07-.06,0-.12.08a21.42,21.42,0,0,1-2,1.13c-1.07.54-2.22,1-3.38,1.57,0-.22.11-.44.17-.68a10.18,10.18,0,0,0,.37-2.24,1.3,1.3,0,0,1,.06-.19c.06-.18.14-.43.22-.72.17-.6.39-1.38.62-2.17.12-.39.24-.78.38-1.12.07-.18.12-.35.2-.51l.2-.43a5.7,5.7,0,0,1,.35-.62l.14-.24-.08-.07-.16.22a6.38,6.38,0,0,0-.39.6l-.25.43c-.08.15-.15.32-.24.49-.17.34-.32.72-.49,1.09s-.33.83-.49,1.21a16.39,16.39,0,0,1,.35-3.77,16.33,16.33,0,0,1,1.74-3.72c.3-.62.53-1.25.78-1.83s.38-1.16.55-1.68c.32-1.05.57-1.92.78-2.51l.3-.94L75.5,23l-.33.95c-.22.6-.49,1.46-.83,2.5-.17.51-.37,1.06-.57,1.64s-.48,1.16-.77,1.74l-.5.88c0-.08,0-.16,0-.24,0-.74.13-1.74.18-2.73,0-.5,0-1,0-1.46,0-.24,0-.46,0-.67s0-.42,0-.61c0-.37-.06-.68-.07-.9s0-.34,0-.34h-.08l0,.34c0,.22,0,.53,0,.9v.6c0,.21,0,.43,0,.66,0,.46-.06,1-.11,1.45-.1,1-.24,1.95-.35,2.69s-.17,1.23-.17,1.23h0a7.6,7.6,0,0,0-.83,2A18.71,18.71,0,0,0,70.66,38a13.3,13.3,0,0,1-.47,3.59c-.15.53-.28,1-.41,1.44l0,0a7.78,7.78,0,0,0-2.57,1.86,9.29,9.29,0,0,0-1.68,2.9c-.37.95-.63,1.79-.93,2.51a10.55,10.55,0,0,1-.47,1c-.08.14-.16.32-.24.43s-.11.15-.18.23a4.13,4.13,0,0,1-1.38.91c-.62.27-1.34.5-2.13.76a18.72,18.72,0,0,0-2.53,1,8.13,8.13,0,0,0-2.13,1.51c-.44-4-1-15.34-1-17.48A6.51,6.51,0,0,0,53.69,36c0-.23.1-.53.2-.9a8.84,8.84,0,0,1,1.6-3.21,6.06,6.06,0,0,1,1.68-1.46c.17-.07.33-.18.51-.24L58,30.1l.35-.12c.47-.16.95-.31,1.46-.5a16.26,16.26,0,0,0,3.12-1.4,9.06,9.06,0,0,0,.77-.49L64.4,27l.26-.23.78.23.13.1c.46.35,1.11.69,1.72,1.09l.22.16.2.18c.13.13.27.24.39.38l.66.71c.19.21.37.37.49.48l.19.18,0-.05-.18-.18a6.24,6.24,0,0,1-.47-.5l-.64-.74c-.11-.14-.25-.26-.38-.4l-.2-.2-.22-.18-1.11-.78.75.22,4.19,1.18.06-.33L67.15,27l-1.9-.64-.06-.07a7.4,7.4,0,0,0,.56-.56,12.46,12.46,0,0,0,1.19-1.44c.36-.51.72-1,1-1.54.16-.27.31-.54.47-.8a8.16,8.16,0,0,0,.41-.84l.39-.83c.08-.18.14-.36.2-.54a3.3,3.3,0,0,1,.56-.2,8.32,8.32,0,0,1,1.22-.31l.25,0a1.87,1.87,0,0,1,.34.07,2.14,2.14,0,0,1,.43.14,6.72,6.72,0,0,1,1.05.48,4.72,4.72,0,0,1,.55.36,3.71,3.71,0,0,1,.54.44,1.88,1.88,0,0,1,.24.25l.23.3c0,.06.09,0,.13,0h.08l.16,0h.31a5.54,5.54,0,0,1,.6.06l.54.1a7.93,7.93,0,0,0,1.12.18v-.06a7.65,7.65,0,0,1-1.11-.21l-.53-.12a3.91,3.91,0,0,0-.61-.08c-.11,0-.22,0-.33,0l-.17,0h-.1l-.21-.27a1.31,1.31,0,0,0-.24-.28,4.81,4.81,0,0,0-.53-.49,5.72,5.72,0,0,0-.56-.39,7,7,0,0,0-1.06-.57l-.2-.08c.33,0,.67-.07,1-.09,1.18,0,2.36,0,3.25,0l1.49,0v-.34s-.59,0-1.48,0l-1.56,0,.11-.1a13.75,13.75,0,0,1,1.13-.93,12.41,12.41,0,0,1,1.21-.82,2.47,2.47,0,0,1,.41-.22l.17-.07v-.05l-.17.05a3.72,3.72,0,0,0-.44.2c-.35.19-.8.46-1.26.74s-.89.58-1.21.83a3.87,3.87,0,0,0-.4.34l0,0c-.4,0-.81,0-1.22,0a12.72,12.72,0,0,0-3.29.44l-.15,0c.14-.41.28-.82.39-1.24,0-.14.07-.3.11-.44l0-.22,0-.16,0-.16,0-.1c0-.07,0-.12.07-.18a.92.92,0,0,1,.32-.29,4.25,4.25,0,0,1,.51-.31,4.75,4.75,0,0,1,.55-.28,5.15,5.15,0,0,1,.54-.23c.83-.3,1.63-.51,2.34-.69l.54.07c.34.05.7.13,1.06.2l2,.43c.54.11.91.15.91.15v0s-.36-.06-.89-.19-1.24-.33-2-.53c-.33-.09-.65-.18-1-.25l.76-.2c.48-.13.85-.25,1.1-.34l.39-.14-.32-1.15-.36.1c-.23.07-.59.16-1.05.25-.9.2-2.21.35-3.84.81a4.43,4.43,0,0,1,.26-.54c.06-.1.13-.19.2-.29l.12-.12.07-.06,0,0a.13.13,0,0,0,0-.06c.14-.23.3-.46.43-.7s.26-.51.37-.79a7.81,7.81,0,0,0,.29-.81c.09-.27.18-.54.24-.8.14-.53.25-1,.34-1.45l.3-1.43h0s-.13.57-.33,1.41c-.1.43-.22.92-.37,1.44-.07.26-.17.52-.26.78s-.21.53-.31.79-.26.5-.39.75-.29.44-.44.66h0l0,0-.08.07-.14.14a2.34,2.34,0,0,0-.24.31c-.13.21-.24.42-.34.62l-.09.21-.35.13a5.24,5.24,0,0,0-.65.27c-.21.11-.42.2-.69.37a2.75,2.75,0,0,0-.76.65,2.26,2.26,0,0,0-.27.51l-.1.27-.06.24-.06.23,0,.17c0,.12-.06.24-.1.36-.16.47-.37,1-.57,1.47-.11.24-.2.51-.32.74s-.25.47-.38.71-.24.48-.39.7l-.46.68a15.51,15.51,0,0,1-1,1.31,10.18,10.18,0,0,1-1.09,1.17A10.37,10.37,0,0,1,63,25.08a17.69,17.69,0,0,0,.67-1.78c.19-.66.37-1.36.53-2.08h0l.08-.28a6.25,6.25,0,0,1,.23-.73l.19-.47c.07-.17.16-.34.25-.52.17-.36.39-.72.6-1.09.44-.73.9-1.45,1.21-2,.16-.27.27-.53.36-.69l.13-.27-.07,0-.14.25a6.72,6.72,0,0,1-.38.67c-.33.55-.82,1.23-1.3,1.93-.24.36-.48.7-.69,1.06l-.07.11c.19-1,.37-1.9.55-2.65.14-.6.28-1.09.38-1.43l.17-.53-.3-.13s-.07.19-.18.53-.27.84-.43,1.44c-.32,1.2-.64,2.83-1,4.42a2.1,2.1,0,0,1-.06.24v0h0c-.18.71-.36,1.4-.57,2A13.71,13.71,0,0,1,62.33,25a7.62,7.62,0,0,1-.38.71h0a12.75,12.75,0,0,1-2.86,1.07l-1.36.37a20.52,20.52,0,0,1-1.22-3.54,16,16,0,0,1-.37-2.12,5.5,5.5,0,0,1,.08-1.89l0-.05a.58.58,0,0,0,.06-.17l.1-.17.17-.21c.06-.08.12-.13.18-.21h0a2.11,2.11,0,0,0,.43.12,7.44,7.44,0,0,0,1.27.16c.45,0,.9.05,1.24.09a4.62,4.62,0,0,1,.56.08l0-.09L59.74,19l-1.23-.25a6.39,6.39,0,0,1-1.18-.36l0,0,.5-.26.78-.39,1-.49c.37-.19.76-.35,1.17-.53l.64-.27c.22-.08.44-.13.67-.21l1.16-.32.16,0s.14,0,.12-.08v-.39c0-.25,0-.5,0-.75l.06-.4,0-.2.06-.18.11-.36.17-.36a8.54,8.54,0,0,1,.92-1.44,9.07,9.07,0,0,1,2.72-1.32c1.09-.34,2.22-.59,3.06-.81S72,9.16,72,9.16L72,8.83s-.55.17-1.4.35-2,.39-3.11.7a11.85,11.85,0,0,0-1.45.51c.66-.7,1.32-1.33,1.87-1.9a16.25,16.25,0,0,0,1.41-1.58c.16-.2.27-.39.35-.5l.12-.18-.36-.31-.12.15c-.09.1-.2.26-.37.43a15.18,15.18,0,0,1-1.47,1.38C66.79,8.42,66,9,65.21,9.74q-.37.31-.75.69c0-.23.08-.48.13-.74l1.07-2.54C66.39,5.58,67.13,4,67.13,4l0,0L65.51,7.06l-.68,1.4c.06-.3.12-.61.19-.92a29.55,29.55,0,0,0,.44-3c0-.41,0-.76,0-1s0-.38,0-.38h-.3l0,.37c0,.23,0,.57-.07,1a23.6,23.6,0,0,1-.53,2.9c-.24,1.05-.51,2.1-.66,2.91-.07.31-.1.59-.13.81a8.64,8.64,0,0,0-.93,1.25l-.24.44-.2.47-.1.24-.06.24-.13.48,0,.14v0s0,0-.06,0h-.16l-.18,0c-.26.06-.52.09-.77.16l-.71.22c-.47.14-.91.27-1.29.42l-1.51.57c0-.13-.09-.25-.13-.35a3.2,3.2,0,0,1-.28-.85s0-.13-.1-.16a29.15,29.15,0,0,1-.08-3.11c0-.27,0-.53,0-.8l0-.29v-.17l0,0,.16-.14.3-.23c.2-.17.38-.37.57-.55.32-.33.62-.67.91-1a9,9,0,0,1,1.06-.74,2.35,2.35,0,0,1,.35-.11l.35-.08a4.79,4.79,0,0,1,.63,0h.63v0l-.63,0a4.4,4.4,0,0,0-.64,0l-.37,0a3,3,0,0,0-.38.09,4.11,4.11,0,0,0-.42.21A21.73,21.73,0,0,1,62,4.57l-.25-.42a46.94,46.94,0,0,0-4,4c.07-.75.16-1.81.24-2.87s.11-2,.1-2.73,0-1.24,0-1.24h-.3l-.05,1.22c0,.74-.12,1.72-.21,2.7-.15,1.41-.34,2.82-.43,3.49a2.39,2.39,0,0,1-.26.21l-.75.53L56,9.53s0,.1,0,.14l0,.3-.06.52c0,.27-.07.54-.09.83a15,15,0,0,0,0,3.41s0,0,0,0a4.92,4.92,0,0,0,.3,1.28,1.16,1.16,0,0,1,.11.6v.1a1.28,1.28,0,0,1-.42.77,2.49,2.49,0,0,1-.23.22l-.28.3a4.43,4.43,0,0,0-.29.42c-.08.16-.15.33-.22.49,0,0,0-.05,0-.08a9.37,9.37,0,0,0-.26,2.71A17.48,17.48,0,0,0,54.78,24a23.87,23.87,0,0,0,1,3.79,8.43,8.43,0,0,0-2.34,1.82,11.76,11.76,0,0,0-1.91,2.88,11.32,11.32,0,0,1-1-1.66,49.67,49.67,0,0,1-2-8.88,5,5,0,0,0-.31-1.41,6.25,6.25,0,0,1-.09-.68c0-.47-.09-1-.15-1.57s-.07-1.24-.12-1.93c0-.36,0-.73-.08-1.11s-.11-.72-.15-1.08a3.17,3.17,0,0,1,.06-1.62c.1-.26.9-.54,1.56-.86a11.39,11.39,0,0,0,1.92-1.22,8.81,8.81,0,0,0,1.67-1.57,4.45,4.45,0,0,0,.85-2.21,8.71,8.71,0,0,0,0-.87.61.61,0,0,1,0-.12A2.81,2.81,0,0,1,54,5.22c.11-.18.21-.37.33-.55l.37-.54a5.58,5.58,0,0,0,.35-.58,5.27,5.27,0,0,0,.24-.62,4.78,4.78,0,0,0,.15-.6c0-.2.08-.38.11-.55.11-.68.21-1.12.21-1.12l-.05,0s-.11.45-.24,1.12c0,.17-.08.35-.12.54s-.1.39-.17.58a5.05,5.05,0,0,1-.26.59,4.51,4.51,0,0,1-.35.54c-.13.18-.27.35-.4.52s-.24.37-.35.54a1.64,1.64,0,0,0-.14.22l0-.58c0-.29,0-.58-.06-.85s0-.48,0-.71c0-.49.09-.91.12-1.25a7.14,7.14,0,0,0,0-.84c0-.19,0-.29,0-.29h-.45l0,.27a6.4,6.4,0,0,1-.09.78c0,.34-.12.76-.2,1.24,0,.25-.06.53-.08.82s0,.56,0,.86a11.52,11.52,0,0,1-.12,1.84,3.32,3.32,0,0,1-.2.72l-.16-.46-.23-.66c-.09-.23-.2-.47-.31-.72-.22-.48-.45-1-.68-1.53-.54-1-1-2-1.5-2.73L49,0l-.25.2s.28.48.69,1.21.89,1.75,1.39,2.76c.21.52.43,1,.63,1.53.09.25.2.48.28.71s.14.45.2.66c.12.37.22.68.29.92a1.63,1.63,0,0,1-.17.22,7.39,7.39,0,0,1-1.53,1.24,10.1,10.1,0,0,1-1.8,1l-.26.09-.73-2.61V7.77a2.87,2.87,0,0,1,0-.57A5.35,5.35,0,0,1,48,6.56a11.77,11.77,0,0,0,.39-1.42,1.74,1.74,0,0,0,0-.39,1.63,1.63,0,0,0,0-.38c0-.13,0-.25-.05-.38s0-.23-.07-.35c-.11-.46-.24-.87-.31-1.24a2.34,2.34,0,0,1-.06-.5,1.27,1.27,0,0,1,0-.39l0-.34h0s0,.12-.05.34a1.3,1.3,0,0,0,0,.4,3.37,3.37,0,0,0,0,.52c.06.37.18.8.27,1.25,0,.12,0,.23.07.35a2.19,2.19,0,0,0,0,.36,2.17,2.17,0,0,1,0,.36,1.51,1.51,0,0,1-.06.35,12.33,12.33,0,0,1-.44,1.38,4.1,4.1,0,0,0-.19.66.06.06,0,0,1,0,0c0-.16-.09-.32-.13-.48a24.65,24.65,0,0,0-1-2.73c-.33-.72-.54-1.21-.54-1.21l-.27.17s.2.48.49,1.21A21.77,21.77,0,0,1,47,6.8l-.09-.07a2.25,2.25,0,0,1-.31-.26c-.21-.22-.46-.46-.72-.75s-.53-.59-.83-.88a2.22,2.22,0,0,0-.47-.4c-.17-.1-.34-.21-.5-.29l-.93-.41a5.94,5.94,0,0,1-.63-.32l-.24-.13,0,0,.23.14c.15.08.36.22.63.34l.91.45c.16.09.31.2.48.31a1.76,1.76,0,0,1,.42.4c.28.3.54.62.79.92s.49.58.69.82.22.2.31.3l.24.22.19.17c.29,1.2.57,2.33.73,3-.12-.05-.25-.15-.4-.2s-.32-.13-.5-.18-.37-.11-.57-.15l-1.22-.28-.6-.18A3.17,3.17,0,0,1,44,9.15a3.49,3.49,0,0,1-.49-.33c-.15-.12-.28-.24-.4-.35a8.79,8.79,0,0,0-.86-.72l0,0a8.4,8.4,0,0,1,.83.74l.4.37a3.53,3.53,0,0,0,.48.36,3.77,3.77,0,0,0,.57.28c.2.08.41.15.61.21l1.21.35c.19.05.37.13.54.18a5.11,5.11,0,0,1,.47.21,2.57,2.57,0,0,1,.37.21l.07,0h0a2.57,2.57,0,0,0-1.19.8,2.9,2.9,0,0,0-.51,1.54c0,.23,0,.44,0,.66l0,.62c0,.38.08.77.07,1.1s0,.61,0,.9a11.38,11.38,0,0,0-.58-1.08,8.55,8.55,0,0,0-.58-.85c-.11-.15-.25-.28-.37-.42s-.25-.22-.37-.34A10.08,10.08,0,0,0,41,11.94h0c-.4-.65-.85-1.53-1.33-2.4s-1-1.89-1.26-2.63l-.54-1.22-.27.14.5,1.25c.29.75.75,1.72,1.18,2.71.33.65.64,1.31.94,1.88-.74-.24-1.42-.45-2-.66a11.8,11.8,0,0,1-1.88-.79,3.65,3.65,0,0,1-.49-.28l-.18-.1-.4.7.18.14c.12.08.29.22.52.36a14.74,14.74,0,0,0,1.93,1c.42.19.88.38,1.36.58l-.23,0-.73.07-.67.09h-.23a7,7,0,0,1-.91-.1,3.06,3.06,0,0,1-.43-.13,2.49,2.49,0,0,1-.4-.24,4.94,4.94,0,0,0-.87-.53c-.29-.15-.59-.26-.87-.38l-.82-.35c-.24-.14-.47-.27-.67-.41l-.52-.46L31.67,10l-.2-.13-.4-.24,0,.09.38.24.2.13.21.2.51.47c.21.16.44.3.69.46l.81.39a6.69,6.69,0,0,1,.85.42,3.88,3.88,0,0,1,.8.54,2.89,2.89,0,0,0,.45.29,3.12,3.12,0,0,0,.48.18h0c-.64.14-1.23.28-1.72.34a2.4,2.4,0,0,1-.88,0,.85.85,0,0,1-.3-.11l-.14.31a2.57,2.57,0,0,0,.37.15,2.89,2.89,0,0,0,1,0c.78-.07,1.81-.3,2.81-.46l.63-.05H39c.67,0,1.19-.06,1.45-.09l.1,0h0l.59.29c0,.05.06.09.07.09l0,0a8.06,8.06,0,0,1,2,1.43c.09.1.19.2.27.3s.15.17.22.29a5.83,5.83,0,0,1,.4.7,14.68,14.68,0,0,1,.67,1.58c.39,1.08.69,2.12.92,3s.37,1.66.45,2.19c0,.15,0,.28.07.39L46,23.12l-.7-.62a9,9,0,0,0-.74-.62c-.52-.37-1-.77-1.53-1.09s-1-.56-1.38-.82a5.23,5.23,0,0,1-.9-.7l-.28-.35-.07.06.28.36a5.49,5.49,0,0,0,.9.76c.39.27.87.55,1.36.87s1,.77,1.46,1.16a7.18,7.18,0,0,1,.7.65l.66.65.54.66c.12.19.22.38.32.55a27.85,27.85,0,0,0,1.21,4.54c.27.62.7,1.44,1.16,2.41a6.64,6.64,0,0,0-.88-.26,35.52,35.52,0,0,0-3.83-.44,3.6,3.6,0,0,1-1.39-.5,4.55,4.55,0,0,1-1.15-1.1l0-.1a5.76,5.76,0,0,1-.72-1c-.06-.4-.09-.82-.12-1.25,0-1,0-2.1,0-2.88s0-1.33,0-1.33h-.08s0,.53-.07,1.31-.16,1.84-.18,2.91v.52c-.25-.52-.49-1.08-.73-1.65a16.88,16.88,0,0,0-1-2.05,6.5,6.5,0,0,0-1.08-1.39c0-.22-.07-.44-.1-.67-.16-1.13-.31-2.3-.52-3.17a7.71,7.71,0,0,0-.29-1.05l-.14-.39-.55.27s0,.13.1.36a6.63,6.63,0,0,1,.21,1c.13.76.2,1.79.28,2.86-.25-.23-.5-.45-.76-.66-.06-.15-.12-.32-.21-.5a15.37,15.37,0,0,0-1.32-2.32,12.25,12.25,0,0,0-1.72-1.94c-.25-.25-.49-.41-.64-.54l-.24-.2-.17.27.23.21c.14.14.37.3.6.56a12.65,12.65,0,0,1,1.59,1.95,16.43,16.43,0,0,1,1,1.82c-.53-.38-1.07-.74-1.63-1.08A17.58,17.58,0,0,0,31.35,18,7,7,0,0,0,29,17.45l-.06,1.2a6.28,6.28,0,0,1,2,.68,16.28,16.28,0,0,1,1.9,1.15A26.33,26.33,0,0,1,35.85,23l-.16.11-.29.18-.13.07-.29.15a5.45,5.45,0,0,1-.61.2,6.68,6.68,0,0,1-1.67.18l-.45-.22-1-.6-.58-.34a5.25,5.25,0,0,1-.58-.38c-.38-.28-.77-.53-1.11-.82L28,20.79,27.09,20l0,0,.89.79.93.8c.33.3.72.57,1.09.87a4.57,4.57,0,0,0,.57.41l.57.38.85.55-.26,0a20.3,20.3,0,0,1-2.41-.46l-2.37-.63-.12.5,2.31.9.42.15-.55.15a17.19,17.19,0,0,1-1.79.49,3.36,3.36,0,0,1-.6.09l-.22,0v.06l.23,0a4.54,4.54,0,0,0,.61-.07c.5-.07,1.15-.24,1.81-.39a8.93,8.93,0,0,1,1-.18h0c.48.16,1,.32,1.56.45a8.33,8.33,0,0,0,3,.21,5.84,5.84,0,0,0,.81-.17l.62-.24.1,0s0,.06.08.08l.21.29a17.54,17.54,0,0,1,1.31,2.21l.53,1,.47.78c.2.28.34.47.41.58l-.66-.07c-.57-.06-1.18-.16-1.79-.18-1.23-.09-2.45-.11-3.36-.1l-1.53,0V30l1.51.07.79.06c-.28.13-.56.33-.85.5-.56.36-1.12.74-1.55,1-.21.13-.4.21-.53.28l-.21.1L31,32l.21-.09c.13-.07.33-.13.54-.26.45-.23,1-.58,1.6-.9.3-.15.58-.33.87-.44l.4-.17.07,0c.61.06,1.28.13,1.94.22.27,0,.54.08.8.13a7.39,7.39,0,0,1-.63.71h0L35.5,32.45l-1.3,1.17,0,.05,1.34-1.12,1.31-1.16h0c.29-.24.51-.52.76-.76l.1-.09.59.11.8.15a4.35,4.35,0,0,1,.65.17,2.14,2.14,0,0,1,.4.19,14.3,14.3,0,0,0,1.49,1.41,5.74,5.74,0,0,0,2.15,1,19.47,19.47,0,0,0,2,.34,10.48,10.48,0,0,1,1.69.37,4.35,4.35,0,0,1,1.35.64,4,4,0,0,1,1,1.09c.52.81,1,1.92,1.58,3.12,0,.27.06.55.07.83.22,4.57-.1,8.86-.1,12.41s1.08,6.27-3,5.2c0,.05,0,.1.05.15h0L48,57.51l-.42-.28q-.39-.27-.78-.57A18.28,18.28,0,0,1,44,53.93a11.43,11.43,0,0,1-1.1-1.57l-.11-.2-.06-.1,0-.05,0-.12-.35-1-.18-.65c.1-.42.21-.86.34-1.28.25-.85.53-1.7.81-2.58s.53-1.77.73-2.72a9.75,9.75,0,0,0,.2-1.49v-.39c0-.14,0-.29,0-.42a1.45,1.45,0,0,0,0-.28c.05-.39.09-.8.12-1.22a16.11,16.11,0,0,0-.1-2.86c0-.38-.12-.7-.15-.92s-.06-.35-.06-.35l-.3.08.06.34c0,.22.09.52.11.9a15.94,15.94,0,0,1,0,2.77c0,.1,0,.2,0,.31a5.75,5.75,0,0,0-1.17-1.9,23.69,23.69,0,0,0-1.73-1.74,39.44,39.44,0,0,1-3.44-3.25l-.35.32a39.7,39.7,0,0,0,3.22,3.66,23.49,23.49,0,0,1,1.51,1.82c.13.18.25.37.36.55a10,10,0,0,0-1.4-.88c-.95-.51-1.91-.93-2.6-1.31a4.8,4.8,0,0,1-1.07-.74l-.2.26a5.4,5.4,0,0,0,1.12.82c.69.43,1.64.89,2.55,1.42a6,6,0,0,1,2.16,1.84,2.17,2.17,0,0,1,.21.44,5.81,5.81,0,0,1-.29,1.8c-.24.81-.55,1.63-.88,2.45l-.8,2c-.13-.5-.28-1-.46-1.6-.12-.35-.24-.7-.4-1.07,0-.09-.07-.18-.12-.28l-.16-.33a4.46,4.46,0,0,0-.49-.78,6.36,6.36,0,0,0-.56-.7c-.27-.05-.57,0-.85-.07l-.43,0-.36,0-.55.06c-.73.11-1.44.26-2.11.43l-1,.23-.77.17c-.17.09-.26,0-.37-.11a3.72,3.72,0,0,1-.47-.42,17.53,17.53,0,0,1-1.09-4.08,41.66,41.66,0,0,0-.92-4.5c-.08-.3-.17-.58-.26-.82s-.17-.45-.25-.62l-.25-.52-.52.33.2.5c.07.15.13.35.21.58s.15.49.22.78a29.69,29.69,0,0,1,.52,3.1L27.1,34l-.25.2,3.08,5.09v0c.09.71.2,1.43.34,2.12-.35-.42-.68-.83-1-1.22-.68-.88-1.26-1.61-1.67-2.12L27,37.32l-.78.82s.21.29.57.82.86,1.3,1.46,2.25a32.37,32.37,0,0,0,2.26,3.2,6.54,6.54,0,0,0,.75.84c.2.2.4.4.61.59L32,46s.06,0,.09,0h.1l.39,0,.39,0,.34,0,.52-.06,1-.13q1-.13,1.95-.18h.45a.4.4,0,0,1,.2,0l.1,0a.54.54,0,0,1,.05.11.27.27,0,0,1,0,.12l.06.14c0,.06,0,.14.06.21.09.27.16.57.24.86.13.59.24,1.17.33,1.72,0,.27.08.52.12.77l-.5.13c-.78.21-1.55.39-2.31.53a9.64,9.64,0,0,1-4.24,0,5.16,5.16,0,0,1-.86-.36,8.52,8.52,0,0,1-.89-.62,17.94,17.94,0,0,1-1.79-1.62,15.4,15.4,0,0,1-1.26-1.42h0l-.32-.42a8.75,8.75,0,0,1-.61-.94l-.1-.21a1.12,1.12,0,0,1-.08-.18l0-.12s0,0,0,0l-.28,0,.27-.16-.16-.32c-.1-.2-.26-.49-.42-.84a24.22,24.22,0,0,1-1.07-2.67,17,17,0,0,1-.65-2.83c-.07-.39-.07-.73-.1-1s0-.36,0-.36h-.6v.39c0,.24,0,.6,0,1a18.91,18.91,0,0,0,.49,3,27.07,27.07,0,0,0,.93,2.9c.1.26.2.49.28.68l-1-.1L23,44l-1-1c-.38-.36-.79-.76-1.21-1.2-.05-.11-.09-.23-.14-.35-.22-.51-.5-1.08-.78-1.7-.14-.31-.28-.63-.4-1s-.21-.7-.31-1l-.15-.52-.12-.54q-.11-.54-.21-1.05c-.06-.34-.08-.68-.12-1s-.07-.62-.1-.9c0-.55,0-1,0-1.34s0-.52,0-.52h-.08v.52c0,.32,0,.79,0,1.35,0,.28,0,.59.07.91s0,.66.1,1l.18,1.07.09.55.14.54.27,1.08c.12.35.24.69.37,1L19.94,41c-.64-.68-1.29-1.42-1.92-2.2-.45-.57-.88-1.16-1.28-1.76l0,0-.13-.25-.12-.32c0-.13-.08-.28-.11-.45a15.1,15.1,0,0,1-.24-2.65c0-1,0-2,0-2.72s0-1.24,0-1.24h-.3s0,.49-.09,1.23-.11,1.74-.13,2.74a20.76,20.76,0,0,0,.07,2.13A12.39,12.39,0,0,1,15,33.86a8,8,0,0,1-.36-1,7.65,7.65,0,0,1-.21-.82c-.08-.46-.12-.72-.12-.72l-.6.07s0,.29.12.8a6.88,6.88,0,0,0,.19.89,9.77,9.77,0,0,0,.34,1.12,12.35,12.35,0,0,0,.48,1.19l-.78-.65c-.55-.44-1.1-.88-1.5-1.23l-.66-.58,0,.06s.26.24.64.62.9.85,1.42,1.34l.74.74a8.94,8.94,0,0,1,.62.66l.12.13a26.59,26.59,0,0,0,1.93,3c.4.54.82,1.06,1.24,1.57l-.42-.19-.79-.31-1.07-.42c-.57-.34-1.23-.75-1.88-1.21a11.51,11.51,0,0,1-2-1.79,2.66,2.66,0,0,1-.32-.4l-.22-.32-.2-.28-.25.18.19.31c.07.09.14.21.23.34a2.08,2.08,0,0,0,.32.43,12.35,12.35,0,0,0,2,2,.18.18,0,0,1,.07,0c-.41-.15-.81-.27-1.18-.38L12,38.7l-.89-.2-.77-.17-.07.51.73.24.83.27c.32.12.68.28,1.07.44.79.31,1.69.73,2.66,1.19l.87.43-.17,0c-.26,0-.54.12-.82.18a15.66,15.66,0,0,0-1.73.62c-1.14.51-2.25,1.1-3.09,1.5s-1.41.64-1.41.64l0,.08s.59-.21,1.44-.59,2-.91,3.13-1.34a12.09,12.09,0,0,1,1.71-.5c.28-.05.55-.11.8-.13a6.11,6.11,0,0,1,.72,0h.29l.47.25.71.4a3.64,3.64,0,0,1,.68.45c.22.17.44.32.65.5.42.39.83.73,1.23,1.13.79.75,1.55,1.51,2.26,2.1l.18.15c-.54-.12-1.1-.22-1.67-.29a32.89,32.89,0,0,0-3.93-.15l-1.77,0v.34l1.77,0a34,34,0,0,1,3.88.26,18.13,18.13,0,0,1,2.36.54l0,.06A20.87,20.87,0,0,0,25.87,50l.34.39c-.19,0-.39,0-.61-.06a3.48,3.48,0,0,0-.55,0,3.68,3.68,0,0,0-.53.18c-.34.15-.67.35-1,.52l-.24.13-.26.09-.5.19a9.9,9.9,0,0,1-1,.33,8,8,0,0,0-.94.3,7.14,7.14,0,0,0-.83.35c-.51.23-.92.45-1.22.55l-.47.18,0,.07.48-.15c.31-.1.72-.31,1.23-.53a7.2,7.2,0,0,1,.83-.32,8.59,8.59,0,0,1,.94-.27,10.67,10.67,0,0,0,1-.29l.52-.17.27-.09.25-.12c.34-.16.66-.34,1-.47a3.21,3.21,0,0,1,.48-.14,2.69,2.69,0,0,1,.49,0,7.55,7.55,0,0,1,.95.17l.13,0q.55.59,1.17,1.14a10.36,10.36,0,0,0,1.18.94,7.16,7.16,0,0,0,1.43.73,9.37,9.37,0,0,0,2.9.57,17.4,17.4,0,0,0,2.72-.1c.88-.09,1.74-.23,2.59-.39l.31-.06h.22c.06,0,.13,0,.15,0s.13,0,.15.06l0,.11v0l0,.07.07.16.15.31a17.76,17.76,0,0,0,1.35,2.26,22.83,22.83,0,0,0,3.27,3.63c.3.27.61.53.92.79l.45.36c.2.14.41.3.59.41.63.39,1.18.68,1.71,1l-.52,0-1.11,0-1.11,0-1.09-.09c-.36,0-.7-.11-1.05-.15s-.64-.17-1-.24l-.06-.13a3.54,3.54,0,0,1-1.29-.86A13.24,13.24,0,0,0,39,59.8a2.58,2.58,0,0,0-.66-.35,2.65,2.65,0,0,0-.71-.22,2.79,2.79,0,0,0-.68-.08h-.65a11.86,11.86,0,0,0-2.3.47l-.13.05-.83-.33a20.25,20.25,0,0,1-2.51-1.15l-.77-.44-.41-.24-.45-.27c-.29-.19-.62-.38-1-.57a4.12,4.12,0,0,0-1.27-.42c-.23,0-.46,0-.69,0l-.61.1-1.13.25c-.73.18-1.49.29-2.25.43l-.23,0-.2-.05a17.8,17.8,0,0,1-1.82-.62,17,17,0,0,1-3.18-1.8,10,10,0,0,1-.95-.76l-.36-.3-.2.26.36.32a11.24,11.24,0,0,0,1,.81,18.14,18.14,0,0,0,3.21,1.94c.33.12.64.26,1,.39a33.11,33.11,0,0,1-6.15.39.82.82,0,0,1-.17-.11,7.5,7.5,0,0,1-.6-.51L13,56.39a7.9,7.9,0,0,1-.64-.66l-.5-.63-.48-.63-.06.06.45.65.47.68c.17.25.39.47.59.73l.6.72c.09.09.17.19.25.28h-.07A8.16,8.16,0,0,1,11,57a3.8,3.8,0,0,1-.4-.19l-.27-.18-.23-.15-.28.4L10,57l.29.23a4.14,4.14,0,0,0,.43.24,8.62,8.62,0,0,0,2.38.81l0,0c-.37.09-.77.18-1.18.24a6.18,6.18,0,0,0-.62.12,5.69,5.69,0,0,0-.59.16c-.38.12-.73.23-1,.34-.59.2-1,.32-1,.32l0,.08s.41-.09,1-.26c.3-.09.65-.18,1-.27a3.84,3.84,0,0,1,.59-.11,4.07,4.07,0,0,1,.61-.08c.41,0,.83-.08,1.23-.14a3.06,3.06,0,0,0,.56-.14l.48-.11a37.19,37.19,0,0,0,8,0c.78-.08,1.57-.15,2.33-.28a7.35,7.35,0,0,1,2-.17,5.08,5.08,0,0,1,1.59.89l.4.29.43.29.81.54c.45.29.88.54,1.27.75l-1.07.47c-1.33.63-2.59,1.34-3.84,2a14.93,14.93,0,0,1-3.78,1.39,6,6,0,0,1-.95.12l-.47,0a4.38,4.38,0,0,1-.51,0l-.85-.07a9,9,0,0,1-1.4-.73,12.91,12.91,0,0,1-2-1.72c-.26-.26-.45-.5-.6-.66l-.23-.25-.22.23.23.27c.14.17.33.42.59.69a13.77,13.77,0,0,0,2,1.88l.24.15a46.26,46.26,0,0,1-7.85-2l-.35,1.13c1.12.47,2.26.87,3.41,1.24-.26.18-.54.39-.81.6a5.47,5.47,0,0,1-.63.44l-.68.4c-.23.14-.47.25-.7.37L9.84,67c-.45.2-.88.36-1.24.51-.75.24-1.25.38-1.25.38l0,.09,1.27-.33,1.27-.45.7-.3c.24-.11.49-.2.72-.33l.71-.37a6.35,6.35,0,0,0,.68-.39,11.49,11.49,0,0,1,1.15-.7l.11,0c1.37.42,2.76.77,4.16,1.08l1.1.15a27.68,27.68,0,0,0-3.43,2.23l0,0-.08.1a11.25,11.25,0,0,1-2.33,1.26,17.51,17.51,0,0,1-2.28.7c-.68.17-1.25.27-1.66.35L8.79,71l.08.67.65-.08c.41-.06,1-.14,1.7-.28a16.11,16.11,0,0,0,3-.88l-.34.48a9.87,9.87,0,0,0-1,1.91,4,4,0,0,0-.23.7l-.08.27.29.08.08-.24A3.72,3.72,0,0,1,13.2,73a9.74,9.74,0,0,1,1.08-1.76c.37-.47.75-.93,1.08-1.31.3-.16.59-.33.88-.52.45-.28.81-.54,1.21-.8l.58-.38.6-.32c.39-.2.76-.42,1.12-.58l1.05-.42.46-.19a4.14,4.14,0,0,1,.43-.13l.33-.09.53,0a16.91,16.91,0,0,0,4.25-1.3l1.5-.67c-.54.6-1.1,1.3-1.65,2-.88,1.19-1.71,2.41-2.29,3.36-.31.47-.53.88-.7,1.16l-.26.44.25.19s.09-.16.27-.43.4-.67.71-1.13c.6-.92,1.46-2.11,2.35-3.25A23.49,23.49,0,0,1,29.65,64l.16-.14.89-.38c.64-.25,1.25-.48,1.92-.67s1.34-.44,2-.61a9,9,0,0,1,1.84-.27c.15,0,.27,0,.4,0a1.16,1.16,0,0,1,.35.06.76.76,0,0,1,.29.11,1.23,1.23,0,0,1,.28.17,12.13,12.13,0,0,1,1.4,1.4,6.14,6.14,0,0,0,2.29,1.59.25.25,0,0,0-.12,0c.45.06.91.25,1.32.34s.84.21,1.24.27.82.13,1.22.18l1.22.11,1.21.07h1.23c.41,0,.83,0,1.25-.06h.16a68.55,68.55,0,0,1-.61,20.37,4.46,4.46,0,0,1-.53.22A20.4,20.4,0,0,1,44,88.06a37.83,37.83,0,0,1-7.71.15c-2.87-.17-6-.58-9.1-.88-.79-.07-1.56-.13-2.31-.22s-1.57-.17-2.39-.21a9.36,9.36,0,0,0-2.51.18,8.42,8.42,0,0,0-1.23.4,11.93,11.93,0,0,0-1.07.58c-1.32.82-2.39,1.72-3.49,2.33a13.64,13.64,0,0,1-3.4,1.1c-1.13.23-2.18.38-3.11.52l-2.43.24-2.13.11v.74l2.17,0L7.74,93l.84-.08-.39.24c-.12.08-.25.13-.37.2a1.24,1.24,0,0,0-.28.16l-.15.25a6.22,6.22,0,0,1-.47.71,17.1,17.1,0,0,1-1.14,1.3c-.4.42-.81.86-1.18,1.33-.09.11-.18.26-.25.35l-.08.12,0,.06-.06,0a.75.75,0,0,0-.12-.07l-.21-.09a1.56,1.56,0,0,0-.47-.09c-1.24,0-2.2.75-3.26,1.16l-.06,0a.08.08,0,0,1,0,0H0Z"/></g></g></svg>