<svg xmlns="http://www.w3.org/2000/svg" viewBox="0 0 122.58 123.52"><defs><style>.cls-1{fill:#353535;}</style></defs><g id="Capa_2" data-name="Capa 2"><g id="Ñëîé_1" data-name="Ñëîé 1"><path class="cls-1" d="M122.23,89.66a3.45,3.45,0,0,0-2-1,15.44,15.44,0,0,0-2.89-.35c-.53,0-1.16,0-1.63-.09l-.8-.15a6.55,6.55,0,0,1-.86-.2l-1.93-.58c-.36-.1-.68-.23-1.08-.31l-1.23-.23a8.19,8.19,0,0,0-2.64.09,1.57,1.57,0,0,1-1.34-.28c-.65-.39-1.25-.83-1.95-1.33a13.58,13.58,0,0,0-2.46-1.49c-.23-.11-.48-.19-.72-.28l-.35-.14-.24-.09c-.31-.12-.61-.29-.91-.44a17.18,17.18,0,0,1-1.86-1.35l-1-.83c-.36-.27-.67-.53-1.17-.85a6.55,6.55,0,0,0-1.47-.82l-.8-.33-.81-.2a17.24,17.24,0,0,0-5.82,0,22.52,22.52,0,0,1-2.28.2c-.7,0-1.38.07-2.12,0l-2.14,0h-.93c.58-3.37,1.48-6.76,3.81-9.55,6.42-7.68,8.6-16.6,8-25.75a16.27,16.27,0,0,0-1.11-2.58c-.45-.84-.9-1.66-1.34-2.46a28.07,28.07,0,0,0-1.37-2.49c-.24-.39-.47-.79-.71-1.16l-.73-1.07c-1.18-1.7-2.29-3.15-3.23-4.37L82,28.92c-1.15-1.2-1.92-2.41-1.09-3.14s2.33-.28,3.4-.35a10.78,10.78,0,0,1,4.18.32h.23a31.53,31.53,0,0,1,4.41,2.05L95,29.09a6.45,6.45,0,0,0,1.93.49c.23,0,.53,0,.83,0l.94-.65,1.85.62L100.8,32l1.22.29a5.49,5.49,0,0,1-.38-3.88l-2-.44c.5-.68,1.14-1.66,1.14-1.66l.57-1.49a.16.16,0,0,1,0-.1c.18-.6.43-2,1-2.3a2.92,2.92,0,0,1,1.68-.18,6.88,6.88,0,0,1,2,.5,3.36,3.36,0,0,0,1.7-.22q1.15-.81,2.34-1.59a.64.64,0,0,1,.24-.37c.32-.27.65-.51,1-.75l.39-.35V19.4a.75.75,0,0,0-.07-.24h-.15a16.66,16.66,0,0,1-2.88,1.78,8.47,8.47,0,0,0-1.58,1.24,14.73,14.73,0,0,1-2.62-.38l-1.13-.09,2.21-1.27a.19.19,0,0,1,.06-.25c.49-.39,1-.8,1.46-1.18a2.22,2.22,0,0,0-.23-.18,8.12,8.12,0,0,1-2.75,1.86c-1.35.53-2.62.74-3.12,2.46a6.68,6.68,0,0,1-.53,1.56l-.19.29,0,.27-.66.58c-.62.67-1.31,1.26-1.88,2a.74.74,0,0,1-1.15.17h-.07a9.77,9.77,0,0,1-4.66-2.28c-.74-.27-1.49-.52-2.22-.8A43.53,43.53,0,0,1,84,23.75c-1.7-.59-1.41-2.48-1-4,0-2.7,2-3.84,4.44-4.72a1.62,1.62,0,0,1,.36-.15l.12,0c1.23-.43,2.52-.81,3.63-1.31a4.13,4.13,0,0,0,.22-.42,28.54,28.54,0,0,0,1.33-4,2.92,2.92,0,0,1,1-1.83c.71-.41,1.82-.49,2-1.29l-.53-.4a24.18,24.18,0,0,0-2.75,1.69c.29,0-1.77,5-1.77,5l-2.52.63A17.81,17.81,0,0,0,83,16.56a17.36,17.36,0,0,0-1.19,1.9c0,.14-.49,2.91-.77,4.53L77.3,24.82l-.11-.08-.16.07a.71.71,0,0,1-.72-.2c-.27-.34-.51-.67-.73-1h0v0a5.28,5.28,0,0,1-.94-3.17,2.53,2.53,0,0,1,0-.38l0-.14.06-.14a12.71,12.71,0,0,1,1.75-5,8.19,8.19,0,0,1,2-2.12l1.09-1.1,2-.55a14,14,0,0,0,3.83-2.8,5.44,5.44,0,0,0,.12-1.32A16.54,16.54,0,0,0,85,4.4a2.57,2.57,0,0,1,0-.91c-.12-1.16-.24-2.32-.29-3.49-.54.14-1.11.34-1.11.61,0,.5.49,7.28.49,7.28l-6.67,3.39-4.13,7.08s-.09,2.12-.08,3.58l-1.65-1.16-.1-.17a.69.69,0,0,1-.47-.33c-1.73-2.76-3.52-6.49-3.46-9.84A14.53,14.53,0,0,1,68,7.3a5.84,5.84,0,0,1,.43-2.2c.18-.25.49-.81.82-1.41a23.18,23.18,0,0,1,1.09-2.1l.14-.29L69,1.88l-.18.31c-.23.51-.71,1.55-1.19,2.58-.11.3-.21.61-.3.91a.73.73,0,0,1,0,.3c0,1.42-.49,2.78-.55,4.18,0,.42,0,.83,0,1.24l0,0,.32,2.73L68.21,17l-.42.84L71.59,23l1.73,4.77h-4l-4-1.39a.58.58,0,0,1-.28,0,6.66,6.66,0,0,1-.73-.31L64.07,26v0l-.07,0a.76.76,0,0,1-.26-1A13.59,13.59,0,0,1,63,20.67a18.47,18.47,0,0,0-1.1-1.6c-.41-.55-.81-1.09-1.18-1.66a26.85,26.85,0,0,1-2.38-2.89c-1.55-1.86-3.21-3.63-4.59-5.62H52.6c1,1.43,2.23,2.67,3.24,4.09.49.7,1,1.4,1.46,2.09a12.35,12.35,0,0,1,2.56,3,.76.76,0,0,1,0,.11l.13.13a.64.64,0,0,1,.21.67l1.53,2.54s.36,3.92,0,3.83l-3.45-.84L57.86,24a37.29,37.29,0,0,1-4.92-5.79A12.81,12.81,0,0,1,51,14.77l-.41.28a4,4,0,0,0,.19,1.49,11.56,11.56,0,0,0,.89,2.64,38.13,38.13,0,0,0,3.84,4.56.73.73,0,0,1-.11,1.13l.18.26-2.18.74-2.91-1A18.57,18.57,0,0,1,45,24.81l-.07,0a10.14,10.14,0,0,0-2.41,1.15,5.75,5.75,0,0,0-2.07,3.39,2.54,2.54,0,0,1,.86-.22A4.28,4.28,0,0,1,45.61,26a3.49,3.49,0,0,1,1.29.1c.28.1.29.14.4.1a.27.27,0,0,1,.27-.11h0a10.4,10.4,0,0,1,3.2-.19.25.25,0,0,1,.24.2,4.48,4.48,0,0,1,.63.06h.07c.29,0-3.92,1.06-4.83,2.17a7.77,7.77,0,0,0-1.14,1.79c0,.2-.1.41-.16.62l.37.34c.16-.11.33-.21.5-.31a4.91,4.91,0,0,1,.49-.52c.59-.53,1.21-1,1.76-1.6a.22.22,0,0,1,.25-.05,3.12,3.12,0,0,1,.91-.29,11,11,0,0,1,1.38-.23A11.48,11.48,0,0,1,53,27.86a.21.21,0,0,1,.24.25A24.34,24.34,0,0,0,56,27.9h0l.09-.08.56,0h1l.3.09a3.93,3.93,0,0,1,.64.2l4.14,1.24.78.35-3.21,2.65-7.85,3.4s-8.44.69-8.24,1a1.07,1.07,0,0,0,.45.24h0a31.05,31.05,0,0,0,8.95-1,73.91,73.91,0,0,0,8.54-3.55c1.47-.64,3.34-2.05,5-1.34.76.32,1.46.74,2.21,1h2.76a45.32,45.32,0,0,1,3.16,4.52,75.09,75.09,0,0,1,4.19,9.87c.28.89-1.72,6.74-2.48,7.52s-1.51,1.48-2.25,2.21c0,0-13.38,15.47-14.07,16.12A76,76,0,0,0,55,78.77a29.52,29.52,0,0,0-2.63,5.62c-.53.65-1,1.24-1.42,1.76-.23.27-.47.53-.68.73s-.21.18-.3.26,0,0,0,0l0,0a.49.49,0,0,1-.47.08.71.71,0,0,1-.17-.09c-.1-.06-.26-.21-.4-.32l-1.14-1.06A8.84,8.84,0,0,0,46,84.49a5.76,5.76,0,0,0-2.81-.68,7.65,7.65,0,0,0-1.38.2l-.41.12c-.26.09-.51.19-.76.3-.78.39-1.23.71-1.6.93a1.81,1.81,0,0,1-.61.27.83.83,0,0,1-.27,0l-.19,0-.25-.09a29.15,29.15,0,0,1-2.89-1.42,36.67,36.67,0,0,0-3.43-1.38C26.69,81.1,22.06,80.46,18,79.35c-1-.27-2-.59-3.13-.86a11.15,11.15,0,0,0-3.46-.38A6.07,6.07,0,0,0,8,79.36a9.59,9.59,0,0,0-2,2.28c-.26.37-.54.73-.76,1.09s-.44.72-.65,1.06c-.43.7-.8,1.34-1.16,1.95C2.76,87,2.1,87.93,1.57,88.86A20,20,0,0,1,.3,90.74a3.71,3.71,0,0,1-.3.34l.08.14a1.29,1.29,0,0,0,.12.23.25.25,0,0,1,0,.16v.81a1.1,1.1,0,0,0,.23,0,1.28,1.28,0,0,0,.37-.17,4.62,4.62,0,0,0,.57-.54A20.67,20.67,0,0,0,2.9,89.74c.54-.8,1.35-1.81,2.14-3,.4-.59.82-1.22,1.27-1.85.23-.31.46-.64.69-1s.51-.63.78-1A7.79,7.79,0,0,1,9.44,81.3a3.68,3.68,0,0,1,2.07-.59c1.57,0,3.46.83,5.57,1.56,4.22,1.47,8.79,2.46,12.82,4.2a29.3,29.3,0,0,1,2.7,1.31l-1.81.57c-.73.22-1.51.39-2.31.6l-1.23.3L26,89.48l-1.29.23-.65.11-.63.07c-1.72.16-3.78.17-5.58,1.19a4.9,4.9,0,0,0-2,2.15,6.61,6.61,0,0,0-.5,2.41,8,8,0,0,1-.23,1.66,1.38,1.38,0,0,1-.58.8,2.74,2.74,0,0,1-.93.34l.14,1.12.37-.06a2.94,2.94,0,0,0,1.05-.35,2.66,2.66,0,0,0,1.19-1.38,8.74,8.74,0,0,0,.46-2,5.35,5.35,0,0,1,.5-1.84,3.22,3.22,0,0,1,1.4-1.27c1.25-.61,3-.55,4.82-.55l.72,0,.7-.06,1.37-.14,1.36-.13L29,91.57c.86-.15,1.69-.27,2.47-.44l2.19-.5a27.31,27.31,0,0,0,2.74-.75,6.59,6.59,0,0,0,2.21.4,6.62,6.62,0,0,0,2.6-.7c.6-.31,1.11-.59,1.32-.67,0,0,0,0,0,0l.39-.08h.24c.11,0,.14.06.28.14a5.09,5.09,0,0,1,.68.62l.07.08c-.6.06-1.23.12-1.87.21a11.08,11.08,0,0,0-1.17.24,6.37,6.37,0,0,0-.75.2l-.69.29c-.19.13-.37.27-.55.42a2.47,2.47,0,0,0-.37.56,2,2,0,0,0,0,1.32c.11.23.18.45.31.67l.39.63.58.85a8.65,8.65,0,0,1,.71,1.43l0,.12A4,4,0,0,1,41.08,99a7.25,7.25,0,0,1-1.16,2.53c-.27.41-.58.82-.88,1.24l-.25.33-.24.36-.41.65a10,10,0,0,1-1.93,2.22l.67.91a12,12,0,0,0,2.4-2.31l.49-.64c.07-.08.19-.25.21-.27l.25-.28c.35-.39.71-.79,1.05-1.23a9,9,0,0,0,1.7-3,6,6,0,0,0,.22-1.89,6.68,6.68,0,0,0-.37-1.85s.09,0,.17.06c-.39-.63-.65-1.29-1-1.89l-.39-.72a1.47,1.47,0,0,1-.11-.25.24.24,0,0,1,0-.22.47.47,0,0,1,.22-.09c.19,0,.15,0,.88-.06.56,0,1.16,0,1.74,0h1.87l1.34-.09a5.67,5.67,0,0,0,4.48,0l.58-.28c.19-.1.4-.24.57-.35a7.32,7.32,0,0,0,.79-.57,15.71,15.71,0,0,0,1.23-1.12c.43-.44.81-.86,1.15-1.23a1.33,1.33,0,0,0,0,.19,5.58,5.58,0,0,0,.22,1.35,4.35,4.35,0,0,0,.79,1.3,4.82,4.82,0,0,0,.79.75l1,.76.46.37h0c-.3.08-.6.15-.95.27a5.58,5.58,0,0,0-1.11.51,3.09,3.09,0,0,0-1.13,1.14,3.6,3.6,0,0,0-.44,1.37c-.06.4-.08.74-.1,1.08s-.05.64-.09,1-.09.63-.14.91a4.12,4.12,0,0,1-1.67,2.72c-.92.68-2,1.2-2.92,1.77a7.91,7.91,0,0,0-2.07,1.7,4.57,4.57,0,0,0-.46.62l-.15.22.94.61.15-.17a3.78,3.78,0,0,1,.42-.45,6.52,6.52,0,0,1,1.88-1.24c.87-.43,2-.81,3.24-1.54a6.42,6.42,0,0,0,1.73-1.51,6.23,6.23,0,0,0,1.1-2.16c.11-.38.21-.76.28-1.09s.14-.71.2-1.05A3.55,3.55,0,0,1,58.62,97a.62.62,0,0,1,.23-.13,3.17,3.17,0,0,1,.56-.17,6.93,6.93,0,0,1,.71-.13l.36,0,.13,0,1.56.17.31.49a33.39,33.39,0,0,1,1.93,4.24,8.83,8.83,0,0,1,.29,1,5.22,5.22,0,0,1,.15.82,1.27,1.27,0,0,1-.31,1,7.79,7.79,0,0,1-1.63,1.22,10.47,10.47,0,0,0-1.13.81l-1.09.92a12.54,12.54,0,0,0-3,4.82s.09-.06.15-.07a2.68,2.68,0,0,0-.53,1.12l-.24,1a6.58,6.58,0,0,1-.22.8,1.57,1.57,0,0,1-.3.59,2.38,2.38,0,0,1-.52.43c-.34.2-.8.4-1.18.59a6,6,0,0,0-2,1.41,1.81,1.81,0,0,0-.63,1.32,2.19,2.19,0,0,0,.51,1.36,14.19,14.19,0,0,0,2.28,2.06l.11.1a2,2,0,0,1,.76.8L57.2,123a3.51,3.51,0,0,0-1.1-1.54.3.3,0,0,0,.19,0,6.79,6.79,0,0,1-1.3-1.25,1,1,0,0,1-.19-.78,1.15,1.15,0,0,1,.54-.67c.18-.39.68-.51,1.13-.64.24-.08.42-.12.68-.23a4.58,4.58,0,0,0,1.21-.76,2.68,2.68,0,0,0,.48-.53q.19-.32.36-.63a7.12,7.12,0,0,0,.51-1.16l.21-.56a14.93,14.93,0,0,0,1.82,3,38.79,38.79,0,0,0,3.69,4.06l1.76,1.7.5-.46-1.61-1.85a37.81,37.81,0,0,1-3.23-4.22c-1-1.59-1.76-3.38-1.64-4.52a2.15,2.15,0,0,1,.73-1.5l0,0a8.08,8.08,0,0,1,.94-.91l.88-.6a7.63,7.63,0,0,1,1-.55,10.84,10.84,0,0,0,2.5-1.6,4.84,4.84,0,0,0,1.65-3.46,8.75,8.75,0,0,0-.08-1.68,10.66,10.66,0,0,0-.26-1.45,39.61,39.61,0,0,0-1.72-5.07l-.64-1.32c-.21-.44-.48-.84-.73-1.26a14.21,14.21,0,0,0-.83-1.2l-.22-.29s0,0,0,0L64.28,91a2.19,2.19,0,0,0-.24-.33s-.06-.09,0-.16a.37.37,0,0,1,.23-.1,1.39,1.39,0,0,1,.44,0l.15,0,.07,0h0l.24,0,1-.07c.18.41.37.83.6,1.27.12.25.27.52.42.8s.29.54.52.9l.33.51c.1.15.2.26.3.39l.62.76c.41.52.85,1,1.32,1.55s.94,1.06,1.48,1.57a22.34,22.34,0,0,0,1.66,1.55c1.22,1.07,2.3,1.83,3.22,2.74a8.38,8.38,0,0,1,2.05,3,6.23,6.23,0,0,1,.27.83c.07.32.14.62.22,1l.12.59c0,.2.11.44.17.66s.13.46.21.71.25.53.37.76a8.05,8.05,0,0,0,1.87,2.1,13.94,13.94,0,0,0,2,1.35h0c0,.24.08.5.12.79l0,.24c0,.06,0,.22,0,.2a.17.17,0,0,1,0,.14c-.06.19-.25.52-.4.88a2.63,2.63,0,0,0-.18,1.48c.17.49.69.65,1.15.76a2.14,2.14,0,0,1,.61.19.38.38,0,0,1,.16.38,1.62,1.62,0,0,1-.38.83l-.21.27-.06.08,0,.07a.34.34,0,0,0,.2.47.23.23,0,0,0,.13,0v-.35h0s0,0,.25.15c0,0,0,0,0,0l.23-.23a2.44,2.44,0,0,0,.73-1.28,1.23,1.23,0,0,0-.28-1.07,2.7,2.7,0,0,0-1-.57c-.12-.06-.27-.09-.28-.24a.84.84,0,0,1,.16-.38c.13-.25.32-.47.53-.88a1.72,1.72,0,0,0,.19-.8v-.28q1.13.51,2.19.9c.63.24,1.24.45,1.83.65a11.27,11.27,0,0,0,2,.4,21.38,21.38,0,0,1,5.12,1.06c1.06.51.84.82.9.82l1.37.06a2,2,0,0,0-.13-.84,3,3,0,0,0-1.38-1.45A21.93,21.93,0,0,0,92,114.05a10.57,10.57,0,0,1-1.49-.47q-.83-.37-1.68-.81a25.85,25.85,0,0,1-3.34-2,7.08,7.08,0,0,1-2.4-2.52c0-.11-.06-.19-.08-.26l-.06-.38c0-.15,0-.28-.06-.44l-.05-.53c0-.33-.07-.78-.12-1.2a8.52,8.52,0,0,0-.29-1.38A12.51,12.51,0,0,0,80,99.35C78.89,98,77.67,96.94,76.86,96a17,17,0,0,1-1.25-1.46c-.41-.47-.77-1-1.12-1.48s-.7-1-1-1.45l-.45-.7-.21-.33-.1-.24-.25-.58c-.08-.2-.16-.4-.24-.62A22.88,22.88,0,0,1,75,88.51l.54-.06H76a1.67,1.67,0,0,1,.57.11l.11,0a.28.28,0,0,0,.1.09c.08,0,.15.16.24.26s.16.31.25.48a4.53,4.53,0,0,1,.28.72c.19.54.34,1.17.54,1.89a10.51,10.51,0,0,0,1,2.48A6.55,6.55,0,0,0,80,95.7a8.39,8.39,0,0,0,1.1,1,4,4,0,0,0,.63.41,4.2,4.2,0,0,0,.7.36c.26.1.52.2.77.28s.53.11.8.15a13.32,13.32,0,0,0,2.43,0,5,5,0,0,1,1.29,0,1.16,1.16,0,0,1,.79.59c.15.22.36.84.7,1.62a21.84,21.84,0,0,0,2.14,3.44,15.69,15.69,0,0,1,1.47,2.85,17.59,17.59,0,0,0,1.41,2.74,6.34,6.34,0,0,0,1.79,1.82c.29.21.59.33.82.47l.64.25.07,0h0l.08,0h0l.12,0,.26,0h.08a.69.69,0,0,0,.36-.13c.07-.07.06,0,.23-.26a.81.81,0,0,0,0-.49.75.75,0,0,0-.19-.33.53.53,0,0,0-.17-.12.52.52,0,0,0-.19-.07l-.09,0H98.1l0,0-.48-.25c-.16-.13-.37-.24-.56-.42a4.64,4.64,0,0,1-1.15-1.49,16,16,0,0,1-.94-2.54c-.06-.2-.12-.41-.19-.62a14.65,14.65,0,0,1,1.49,0l.76.11.71.22c.21.13.4.19.66.37l1,.88a4.37,4.37,0,0,0,1-.85l.64-.62c.4-.37.81-.73,1.24-1.06a9.54,9.54,0,0,1,1.32-.89,3,3,0,0,1,1.39-.43l.09-.67a3.62,3.62,0,0,0-1.85.31,10.13,10.13,0,0,0-1.57.81c-.5.3-1,.63-1.44,1l-.62.47-.17.09c-.07.07-.14,0-.2-.1s-.11-.08-.16-.12l-.21-.15-.43-.29c-.3-.15-.61-.27-.92-.41l-.93-.25a21.89,21.89,0,0,0-2.41-.29c-.13-.3-.27-.6-.43-.9A19.53,19.53,0,0,1,92.1,99c-.08-.29-.14-.46-.24-.87a8.31,8.31,0,0,0-.44-1.3,4,4,0,0,0-2.11-2.15,8.3,8.3,0,0,0-2.81-.61,9.62,9.62,0,0,1-1.8-.16l-.24-.08-.21-.12c-.07,0-.14-.12-.21-.17s-.16-.09-.23-.19a2.87,2.87,0,0,1-.68-1,6,6,0,0,1-.36-1.4c-.1-.62-.19-1.31-.34-2a9.92,9.92,0,0,0-.29-1.17,6.26,6.26,0,0,0-.49-1.29,5.65,5.65,0,0,0-.83-1.29c-.17-.21-.35-.41-.53-.6s-.27-.22-.4-.33h0L82.12,84c.75,0,1.6-.17,2.46-.3s1.69-.3,2.48-.46a13.14,13.14,0,0,1,4.17-.45l.44.05.41.13a3,3,0,0,1,.83.36,6.72,6.72,0,0,1,.71.41,2.09,2.09,0,0,0-.29.31c-.14.22-.3.43-.43.67l-.18.34a1,1,0,0,0-.14.31,6,6,0,0,0,1.27,1c.23.19.45.38.67.6a13.3,13.3,0,0,1,3,4.64,3.83,3.83,0,0,1,.24,1.65,2.73,2.73,0,0,1-.32.75l-.47.86a9.88,9.88,0,0,0-.47.92c0,.08-.06.18-.1.27a2.58,2.58,0,0,0-.1.33,1.64,1.64,0,0,0,0,.66,1,1,0,0,0,.9.82,3.51,3.51,0,0,0,1.17,0l-.07-.67a2.74,2.74,0,0,1-.79,0,.44.44,0,0,1-.38-.4.82.82,0,0,1,.06-.28l.06-.14.09-.19c.14-.26.3-.53.48-.8l.54-.83a4,4,0,0,0,.51-1,4.89,4.89,0,0,0-.13-2.24A13.23,13.23,0,0,0,97,87.55a13.38,13.38,0,0,0-1.27-1.67,7.75,7.75,0,0,0-.75-.77c-.09-.1-.09-.1-.1-.13s0-.06,0-.07l.06,0,.22-.11a19,19,0,0,0,2.34,1.35,10.43,10.43,0,0,0,1.48.54l.63.18c.17,0,.34.08.5.14a10.57,10.57,0,0,1,2,1c.7.42,1.5.89,2.28,1.26l.78.33a8.43,8.43,0,0,0,.9.19h.11c0,.07,0,.14,0,.21a2,2,0,0,0,.52.87,3.32,3.32,0,0,0,1.29.7c.39.12.75.21,1.09.3s.67.18,1,.29a4.49,4.49,0,0,0,.6.21l.47.12a3.75,3.75,0,0,1,1.55.91l0,.08a.45.45,0,0,0,.11.13,1.47,1.47,0,0,0,.06.14l0,.22,0,.3a4.9,4.9,0,0,0-.11.77,1.59,1.59,0,0,0,.26,1,2.57,2.57,0,0,0,1.39.92,2.2,2.2,0,0,1,1.08.55l.54-.41a3,3,0,0,0-1.32-.91,1.71,1.71,0,0,1-.88-.67.49.49,0,0,1,0-.36,5.62,5.62,0,0,1,.16-.61l.09-.41a4.07,4.07,0,0,0,0-.5,3.32,3.32,0,0,0-.15-.54,3.7,3.7,0,0,0-.31-.46.18.18,0,0,0,.13,0,6.94,6.94,0,0,0-2.13-1.43l-.57-.2-.4-.21c-.36-.16-.72-.31-1.07-.43s-.68-.25-1-.38a1.45,1.45,0,0,1-.59-.36,0,0,0,0,1,0,0,4.55,4.55,0,0,1,1.59-.19l1,.09a8.75,8.75,0,0,1,1,.18l2,.4a6.73,6.73,0,0,0,1,.14l1,.09c.71,0,1.21-.06,1.74-.07a14.85,14.85,0,0,1,2.57,0,2.4,2.4,0,0,1,1.19.39c.07.07.06.12.08.11h1.37a2,2,0,0,0,0-.28A1.56,1.56,0,0,0,122.23,89.66ZM85.09,119.84h0v0A0,0,0,0,1,85.09,119.84Zm13.07-9.46ZM98,111.52v.13S98,111.61,98,111.52Z"/></g></g></svg>